<svg id="Layer_1" data-name="Layer 1" xmlns="http://www.w3.org/2000/svg" xmlns:xlink="http://www.w3.org/1999/xlink" viewBox="0 0 4500 2500"><defs><style>.cls-1{fill:none;}.cls-2{fill:#aed3f0;}.cls-3{fill:#86bde9;}.cls-4{fill:#c3dcf3;}.cls-10,.cls-11,.cls-12,.cls-14,.cls-15,.cls-16,.cls-17,.cls-18,.cls-19,.cls-20,.cls-21,.cls-22,.cls-23,.cls-24,.cls-25,.cls-26,.cls-27,.cls-28,.cls-29,.cls-30,.cls-32,.cls-33,.cls-34,.cls-35,.cls-36,.cls-37,.cls-38,.cls-4,.cls-40,.cls-41,.cls-42,.cls-43,.cls-44,.cls-8,.cls-9{fill-rule:evenodd;}.cls-5{clip-path:url(#clip-path);}.cls-11,.cls-13,.cls-6,.cls-7{fill:#fff;}.cls-6{fill-opacity:0.45;}.cls-7{fill-opacity:0.55;}.cls-8{fill:#adcfef;}.cls-9{fill-opacity:0.1;}.cls-10{fill:#e8f6ff;}.cls-12{fill:#bbe3f8;}.cls-14{fill:#bae4ff;}.cls-15,.cls-46{fill:#8ebbe5;}.cls-16{fill:url(#linear-gradient);}.cls-17{fill:url(#linear-gradient-2);}.cls-18{fill:url(#linear-gradient-3);}.cls-19{fill:url(#linear-gradient-4);}.cls-20{fill:url(#linear-gradient-5);}.cls-21{fill:#6ca7dd;}.cls-22{fill:#458fd4;}.cls-23{fill:#accdec;}.cls-24{fill:#c5a72a;}.cls-25{fill:#ebd063;}.cls-26{fill:#a05975;}.cls-27{fill:#764256;}.cls-28{fill:#ec6198;}.cls-29{fill:#f6b2cd;}.cls-30{fill:#fdeff4;}.cls-31,.cls-32{fill:#2d4584;}.cls-33{fill:#f396bb;}.cls-34{fill:url(#linear-gradient-6);}.cls-35{fill:url(#linear-gradient-7);}.cls-36{fill:url(#linear-gradient-8);}.cls-37{fill:#c9dff3;}.cls-38{fill:#abcdec;}.cls-39{fill-opacity:0.13;}.cls-40{fill:#d9effb;}.cls-41{fill:#e6f5fc;}.cls-42,.cls-43{fill:#709ad2;}.cls-42{stroke:#709ad2;stroke-linejoin:round;stroke-width:1px;}.cls-44{fill:#afc6e6;}.cls-45{opacity:0.1;}.cls-47{fill:#05837c;}.cls-48{fill:#44ae9e;}</style><clipPath id="clip-path"><rect class="cls-1" x="1.14" width="4502.06" height="2500"/></clipPath><linearGradient id="linear-gradient" x1="1290.66" y1="1792.32" x2="1291.84" y2="1792.32" gradientTransform="matrix(161.12, -778.9, -778.9, -161.12, 1190061.94, 1295141.27)" gradientUnits="userSpaceOnUse"><stop offset="0" stop-color="#fff" stop-opacity="0"/><stop offset="1" stop-color="#fff"/></linearGradient><linearGradient id="linear-gradient-2" x1="1293.6" y1="1789.83" x2="1294.79" y2="1789.83" gradientTransform="matrix(-258.5, -189.95, -189.95, 258.5, 677542.53, -215569.91)" xlink:href="#linear-gradient"/><linearGradient id="linear-gradient-3" x1="1290.75" y1="1794.64" x2="1291.94" y2="1794.64" gradientTransform="matrix(121.6, -209.65, -209.65, -121.6, 222668.09, 490147.98)" xlink:href="#linear-gradient"/><linearGradient id="linear-gradient-4" x1="1290.95" y1="1795.15" x2="1292.14" y2="1795.15" gradientTransform="matrix(96.63, -179.19, -179.19, -96.63, 200350.59, 406305.88)" xlink:href="#linear-gradient"/><linearGradient id="linear-gradient-5" x1="1291.02" y1="1796.5" x2="1292.21" y2="1796.51" gradientTransform="matrix(76.62, -141.5, -142.1, -76.3, 159733.53, 321471.33)" xlink:href="#linear-gradient"/><linearGradient id="linear-gradient-6" x1="1290.62" y1="1792.3" x2="1291.81" y2="1792.3" gradientTransform="matrix(179.85, -504.62, -504.62, -179.85, 674416.78, 974858.03)" xlink:href="#linear-gradient"/><linearGradient id="linear-gradient-7" x1="1289.51" y1="1791.43" x2="1290.7" y2="1791.43" gradientTransform="matrix(547.96, -533.39, -533.39, -547.96, 250847.5, 1671519.11)" xlink:href="#linear-gradient"/><linearGradient id="linear-gradient-8" x1="1290.84" y1="1794.82" x2="1292.03" y2="1794.82" gradientTransform="matrix(75.6, -231.21, -231.21, -75.6, 319430.72, 436423.4)" xlink:href="#linear-gradient"/></defs><rect class="cls-2" x="1.15" width="4502.06" height="2500"/><rect class="cls-3" x="1.15" width="730.1" height="2500"/><path class="cls-4" d="M1.14,1420.45V2500H1310.65c-204.22-121.4-397.83-293.47-564.46-459.59-176.92-176.36-321.73-392.52-531.9-534.23C146.05,1460.17,72.7,1431.68,1.14,1420.45ZM4503.2,830.78V0h-2968C1735.71,228.49,1995,509.21,2307.09,484.26,3443.06,393.47,4725,485.58,4503.2,830.78Z"/><rect class="cls-1" x="1.14" width="4502.06" height="2500"/><g class="cls-5"><rect class="cls-6" x="2605.46" y="448.29" width="1904.43" height="13.01"/><rect class="cls-6" x="2605.46" y="569.02" width="1904.43" height="13.01"/><rect class="cls-6" x="2605.46" y="689.74" width="1904.43" height="13.01"/><rect class="cls-6" x="2605.46" y="810.47" width="1904.43" height="13.01"/><rect class="cls-6" x="2605.46" y="931.2" width="1904.43" height="13.01"/><rect class="cls-6" x="2605.46" y="1051.92" width="1904.43" height="13.01"/><rect class="cls-6" x="2605.46" y="1172.64" width="1904.43" height="13.01"/><rect class="cls-7" x="2731.58" y="315.95" width="10.57" height="1008.86"/><rect class="cls-7" x="2855.9" y="315.95" width="10.57" height="1008.86"/><rect class="cls-7" x="2980.23" y="315.95" width="10.57" height="1008.86"/><rect class="cls-7" x="3104.56" y="315.95" width="10.57" height="1008.86"/><rect class="cls-7" x="3228.89" y="315.95" width="10.57" height="1008.86"/><rect class="cls-7" x="3353.22" y="315.95" width="10.57" height="1008.86"/><rect class="cls-7" x="3477.55" y="315.95" width="10.57" height="1008.86"/><rect class="cls-7" x="3601.87" y="315.95" width="10.57" height="1008.86"/><rect class="cls-7" x="3726.2" y="315.95" width="10.57" height="1008.86"/><rect class="cls-7" x="3850.53" y="315.95" width="10.57" height="1008.86"/><rect class="cls-7" x="3974.86" y="315.95" width="10.57" height="1008.86"/><rect class="cls-7" x="4099.19" y="315.95" width="10.57" height="1008.86"/><rect class="cls-7" x="4223.51" y="315.95" width="10.57" height="1008.86"/><rect class="cls-7" x="4347.84" y="315.95" width="10.57" height="1008.86"/><path class="cls-4" d="M-85.42,2053.05,524,1458.71a419.93,419.93,0,0,1,375.38-111.34L4670.68,2099.2l-80.6,480.42L-28.16,2537.78Z"/><path class="cls-8" d="M-11.76,2537.93l-16.4-.15-57.26-484.73L524,1458.71a419.93,419.93,0,0,1,375.38-111.34L4670.68,2099.2l-16,95.38L928.12,1451.67A420,420,0,0,0,552.74,1563L-56.72,2157.36Z"/><path class="cls-9" d="M1103.54,1770.61,722.36,1780,68.93,2293l1110.86,841.9,846.78-664.69Z"/><path class="cls-10" d="M1106.42,1759.39l-381.18,9.42L71.81,2281.73l1110.86,841.9,846.78-664.69Z"/><path class="cls-11" d="M913.15,2747.07c-7.59-5.65-7.36-15.3.51-21.54l589.19-467.4c7.87-6.24,20.42-6.73,28-1.09s7.36,15.3-.51,21.54L941.16,2746C933.29,2752.22,920.73,2752.71,913.15,2747.07Z"/><path class="cls-11" d="M1088.56,2880c-7.59-5.65-7.36-15.3.51-21.54l589.2-467.4c7.87-6.24,20.41-6.73,28-1.09s7.36,15.3-.51,21.54l-589.19,467.4C1108.7,2885.16,1096.15,2885.65,1088.56,2880Z"/><polygon class="cls-12" points="1036.95 1920.83 950.84 1989.14 1327.53 2269.28 1413.65 2200.97 1036.95 1920.83"/><polygon class="cls-12" points="1027.29 2106.42 941.18 2174.73 1202.11 2368.78 1288.22 2300.47 1027.29 2106.42"/><polygon class="cls-12" points="996.59 2276.36 910.48 2344.68 1076.68 2468.28 1162.8 2399.97 996.59 2276.36"/><polygon class="cls-12" points="763.43 2295.74 677.32 2364.05 951.26 2567.78 1037.37 2499.46 763.43 2295.74"/><polygon class="cls-12" points="517.28 2305.45 431.16 2373.77 825.83 2667.27 911.94 2598.96 517.28 2305.45"/><ellipse class="cls-13" cx="1552.75" cy="2370.44" rx="63.78" ry="48.65" transform="translate(-287.09 215.22) rotate(-7.26)"/><ellipse class="cls-13" cx="1728.17" cy="2503.37" rx="63.78" ry="48.65" transform="translate(-302.49 238.45) rotate(-7.26)"/><ellipse class="cls-13" cx="1427.28" cy="2469.97" rx="63.78" ry="48.65" transform="translate(-300.68 200.16) rotate(-7.26)"/><polygon class="cls-11" points="260.66 2282.47 632.14 1990.87 652.04 2005.95 280.56 2297.55 260.66 2282.47"/><polygon class="cls-11" points="307.38 2317.88 678.86 2026.28 698.76 2041.37 327.28 2332.97 307.38 2317.88"/><path class="cls-14" d="M725.24,1768.81,925.75,1933,1115,1760.35Z"/><path class="cls-10" d="M725.24,1768.81l184.18,147.47L1115,1760.35Z"/><path class="cls-9" d="M2438.19,2165.83l372.18,83.06,542.34,629.81L2100.62,3489.62l-702.81-816.17Z"/><path class="cls-10" d="M2437.52,2154.26l372.19,83.07,542.34,629.81L2100,3478.06l-702.81-816.18Z"/><polygon class="cls-12" points="2474.59 2326.12 2545.92 2409.82 2122.37 2611.74 2051.03 2528.03 2474.59 2326.12"/><polygon class="cls-11" points="3166.62 2831.29 2858.29 2473.24 2835.86 2484.19 3144.18 2842.24 3166.62 2831.29"/><polygon class="cls-11" points="3113.95 2856.99 2805.63 2498.93 2783.19 2509.88 3091.52 2867.93 3113.95 2856.99"/><path class="cls-14" d="M2809.71,2237.33l-228.35,122.22-152.48-206Z"/><path class="cls-10" d="M2809.71,2237.33l-209.12,109-171.71-192.82Z"/><path class="cls-9" d="M1336.69,1698l-374.75-85.13-725.89,340.4,946,1099.17,940.67-441.12Z"/><path class="cls-10" d="M1341.39,1687.71l-374.75-85.14L240.76,1943l946,1099.18L2127.46,2601Z"/><path class="cls-11" d="M986.21,2606.79c-6.48-7.41-4.63-16.8,4.13-21l655.34-311.73c8.76-4.17,21.13-1.54,27.61,5.86s4.63,16.8-4.12,21l-655.35,311.73C1005.06,2616.82,992.69,2614.19,986.21,2606.79Z"/><path class="cls-11" d="M1135.6,2780.36c-6.48-7.41-4.63-16.8,4.12-21l655.35-311.74c8.75-4.16,21.12-1.53,27.6,5.87s4.64,16.8-4.12,21l-655.34,311.73C1154.45,2790.39,1142.08,2787.76,1135.6,2780.36Z"/><polygon class="cls-12" points="1246.26 1828.56 1150.47 1874.12 1472.17 2241.62 1567.96 2196.05 1246.26 1828.56"/><polygon class="cls-12" points="1205.61 2007.86 1109.83 2053.42 1332.67 2307.98 1428.45 2262.41 1205.61 2007.86"/><polygon class="cls-12" points="1147 2166.63 1051.22 2212.19 1193.16 2374.34 1288.94 2328.78 1147 2166.63"/><polygon class="cls-12" points="915.49 2127.89 819.71 2173.45 1053.65 2440.7 1149.43 2395.14 915.49 2127.89"/><polygon class="cls-12" points="887.59 2321.75 791.81 2367.31 914.14 2507.06 1009.92 2461.5 887.59 2321.75"/><ellipse class="cls-13" cx="1675.66" cy="2396.4" rx="48.45" ry="64.04" transform="translate(-1039.97 3480.79) rotate(-76.8)"/><ellipse class="cls-13" cx="1536.1" cy="2462.78" rx="48.45" ry="64.04" transform="translate(-1212.3 3396.14) rotate(-76.8)"/><ellipse class="cls-13" cx="1396.51" cy="2529.18" rx="48.45" ry="64.04" transform="translate(-1384.67 3311.48) rotate(-76.8)"/><polygon class="cls-11" points="425.51 1990.44 838.18 1796.92 855.13 1816.62 442.46 2010.14 425.51 1990.44"/><polygon class="cls-11" points="465.3 2036.68 877.97 1843.16 894.92 1862.85 482.25 2056.37 465.3 2036.68"/><path class="cls-14" d="M966.64,1602.57l168.71,210.34,214.31-122.13Z"/><path class="cls-10" d="M966.64,1602.57l155.53,190,227.49-101.76Z"/><path class="cls-15" d="M2298.73,913c55.48,18.2,633.05,5.22,712.05,3.74s223.06-1.69,269.94,34.83,176.22,300.07,192,329.63,15.61,49.71,14.81,57.53a57.57,57.57,0,0,1-3.8,14.83s39.82,67,54,90.84,10.76,33.22,10.11,45.21-6,35.92-8.83,41.17a13.7,13.7,0,0,1-7.28,6.58s48.62,47.56,53.35,62.19-1.2,40.55-5.8,57.33-39.55,59.48-48.14,68-24.36,8.73-24.36,8.73,22.2,42.58,28.6,53.27-18.54,109.22-26.59,126.92-34.95,42.27-34.95,42.27,41.18,40.38,49.47,72.34,10.37,50.75-8.58,66.34-118-15.47-153.87-24.12-149.43-21.33-182.55-26.93-265.06-38.85-332.52-56-291.75-215.31-360.74-269.48-271.94-241.49-313.15-260.11-357.25-134.18-873-271.26S342.38,882.32,342.38,882.32,382.33,505.23,445.63,367,724.77,11.25,724.77,11.25s485.43,204.94,726.05,357.26S2260.37,900.43,2298.73,913Z"/><path class="cls-16" d="M661.22,78.47c37.09-40.57,63.55-67.22,63.55-67.22s485.43,204.94,726.05,357.26S2260.37,900.43,2298.73,913c55.48,18.2,633.05,5.22,712.05,3.74s223.06-1.69,269.94,34.83c35.4,27.58,117.83,184.64,162.88,272.6C3352,1120.33,3261,983.3,3239.13,981.51c-39.17-3.21-59.43,49.25-88,45.07-11.54-1.68-79.24-36.85-109.43-42.14-62.57-11-134.64,8.87-197.41,8.86-98,0-192-22.32-288.75-29.54-90-6.72-180.47-1.11-267.54-29.13-207.51-66.77-454.27-223.42-632.48-342-148.81-99.07-306-176-466.58-248.79C1007.41,261.43,831.72,176.39,661.22,78.47Z"/><path class="cls-17" d="M3146.23,1072.74c-12.52,34.09-41.8,64.89-48,100.17-4.15,23.4,8.2,75.71,3.14,89.72-11.2,31-39.28,51.9-49.66,83.46-10.11,30.73,5.9,64.46-8.71,95-17.34,36.24-143.32,137.44-82.19,178,53.24,35.3,54.59-56.7,64-86.27,6.07-19.13,19.82-38.24,29.5-55.66,15.31-27.6,61.35-9.51,75.44-39.62,15.48-33.11-6.25-116.23,5-161.07,9.88-39.4,66.18-33.62,71.43-88.65C3210.61,1140.54,3240.49,959.33,3146.23,1072.74Z"/><path class="cls-18" d="M3275.54,1086.53c1.21,16.9,7.56,30.66,13.75,46.33,6.81,17.28,12.35,35,22.07,51,13.18,21.67,30.79,40.11,44.68,61.26,21.61,32.89,45.22,67.63,71.21,97.27,14.16,16.16,27.8,32.53,42.3,48.44,17.28,19,34.29,37.87,53.09,55.36,2.33,2.15,14.53,14.58,18.63,12.78,3.66-1.61-1.95-15.9-2.79-18.12-7.9-20.67-13.47-41.37-27.75-58.92-54.92-67.44-113.26-134.63-160.36-207.88-16.17-25.15-33.14-51-53-73.38-6.14-6.9-11.76-17.94-22.43-17.89"/><path class="cls-19" d="M3277.19,1336c10.93,45.3,48,79.37,79.58,110.73a1271.42,1271.42,0,0,0,138.22,119c21.63,16,40.4,32.73,64.39,45.18,4.29,2.22,19.84,9,23.06,2.77,4.19-8-2.18-18.3-5.93-25.19-12.31-22.62-39-39.43-57-57.47-71.63-71.81-150.86-150.11-239.46-200.54"/><path class="cls-20" d="M3274.53,1582.75c10.89,46.66,60,80.2,97.27,105.29,27.55,18.53,52.78,39.68,73.52,65.33,11.67,14.44,28.16,38.33,46.41,44.49,7.69,2.59,20.41,5.75,23.83-4.27,9.79-28.63-16.67-56.23-35-73.82-39.15-37.45-83.65-75.71-129.6-104.5-21.63-13.54-44.88-39.25-71.78-40.44"/><path class="cls-21" d="M370.88,672.71c68,39.65,155.83,60.64,215.53,86.85C653.35,789,719,824,783.8,857.9c309.06,161.59,644.08,237.13,972.77,336.1,56.22,16.93,124.08,55.43,184.49,53.72,52-1.46,57.81-128.29,118.81-121.09,15.41,1.82,31.47,105.23,131.45,88.38,120.47-20.31,94.93-226.21,232.57-217.89,80.52,4.87-95.64,300.66-105.65,413.11-4.62,52.1,223,187.85,271.05,222.41,103.2,74.23,234.52,133.82,353.11,70.79,8.51-4.53-10.88-13.75-13.41-14.8-15.11-6.29-74.44-49.45-27.32-52.37,27.55-1.71,39.57,18.36,63.5,25.65,97.75,29.79,262.74,49.37,343.74,83.77,51.89,22,84.44,80.77,139,96.3,58.15,16.56,63-20.75,86.5-56.69.35.62.69,1.18,1,1.65,6.42,10.7-18.54,109.22-26.59,126.92s-34.95,42.27-34.95,42.27,41.18,40.38,49.47,72.34,10.37,50.75-8.58,66.34-118-15.47-153.87-24.12-149.43-21.33-182.55-26.93-265.06-38.85-332.52-56-291.75-215.31-360.74-269.48-271.94-241.49-313.15-260.11-357.25-134.18-873-271.26S342.38,882.32,342.38,882.32,352.59,785.92,370.88,672.71Z"/><path class="cls-22" d="M2165.17,1455.26c-6.3-36.68-8.89-74.09,2.55-110,2-6.16,4.27-12.7,7.78-18.18,24.24-37.94,59.9,26.25,87.6-11.43,17.17-23.37,29.23-50.27,42.71-75.81,13.22-25,26.34-50.48,38.76-75.91,11.23-23,20.12-54.57,46-65.33l13.21,14.77c-4.26,4.1-4.82,15.81-6.62,21.24-5.36,16-12.57,31.34-18.43,47.2-22,59.69-40.8,119.94-67.41,177.88-6.54,14.25-15.86,27-24.66,39.77-4.79,7-12.59,17.54-20.87,20.66-13.45,5.07-40.36-2.74-48.81,8.78-9.95,13.57-13.54,31.63-15.21,49-13.11-9.91-23.42-16.87-29.82-19.77Q2169.3,1457,2165.17,1455.26Z"/><path class="cls-22" d="M3473.88,1956.13s-47.54-41.91-110-65.83-132.9-48.3-203.12-63.5-108.69-16.76-144.43-25-33.52-56.81,11.67-45.43,123,55.67,175.43,67.7,68.07,4.75,84.65,1.62-24.7,16.9,3.66,27.84,92.88,37.22,143.26,51.81c31.13,9,58.12,11.11,75.74,3.67-.72,2-1.37,3.62-1.94,4.87-7.52,16.59-31.66,39.23-34.65,42Z"/><path class="cls-15" d="M3330,2062.19c-5.55-11.91-6.8-45.61,4.07-58.73s37.64-15.23,37.64-15.23,48.74,11.12,94.67,29.55,74.85,42.74,68.08,60.91-22.48,36.54-77.3,18.95S3335.54,2074.09,3330,2062.19Z"/><path class="cls-23" d="M3332.47,2064.94a7.58,7.58,0,0,1-2.47-2.75c-5.55-11.91-6.8-45.61,4.07-58.73s37.64-15.23,37.64-15.23,48.74,11.12,94.67,29.55,74.85,42.74,68.08,60.91a44.66,44.66,0,0,1-7.88,13.88c-1.66-6.36-1.63-14.26-2.79-18.15-2.7-9.14-11.34-15.83-18.22-21.65-6.5-5.49-14.84-8.15-22-12.63-29.7-18.67-60.87-37.84-96.95-39.87-12.3-.69-32.3-6-41.88,6.22C3332.94,2021.6,3335.08,2046.07,3332.47,2064.94Z"/><path class="cls-21" d="M3508.16,1736.26l-9.16-1.86s-85.56-72.88-110.4-94-126.42-95.63-158.77-106.35-53.32-10.15-37.21-28.51,95.56-6.28,113.39,26.35,77,93.74,107.48,112.75S3521.84,1703,3537.76,1694c8.56-4.83,22.17-11.36,33.5-21-12.13,19.54-33.61,45.42-40.08,51.88-8.58,8.57-24.36,8.73-24.36,8.73Zm25.36-199.69c-12.72-12.92-92.93-94.14-129.27-126.67-39.54-35.37-92.12-63.26-119.48-93.58s-15.77-36.36-4.7-33.77,65.56,49.9,86.14,76.57,96.95,100.94,125.83,117c26.44,14.67,51.85,34.27,55-11.41,2.91,10.37,1.31,17.11.88,24.94-.63,12-6,35.92-8.83,41.17A14.71,14.71,0,0,1,3533.52,1536.57Zm-47.09-191.33-4.12-1.63s-78.09-116.67-104.76-146.55-56.91-72.49-69.74-97.79-21.4-45.64-4.75-38.42,84.82,134.54,101.91,158.78c12.31,17.45,48.65,57.33,70.8,67.47,12.78,26.34,12.53,44.37,11.8,51.64A48.44,48.44,0,0,1,3486.43,1345.24Z"/><path class="cls-24" d="M357.94-144.72s-16.82-18.31-50-33.72c-18.7-8.68-50.78,22.8-71,16.78-15.87-4.72-21.31-47.62-28.53-49.79C175.53-221.33-40.19-101.21-40.19-101.21L-114,477.67l-19.41,269.27L62,819.79Z"/><path class="cls-25" d="M130.49,117.06C164.16,24.17,259.68-109.46,306-139.68s34.42-39.65,86.72-14.41S496.34-88.2,588.06-89.82,708.34-24.56,729.53-16s23.29,35.88,23.29,35.88S731,7.65,707.18,36.69,455.33,281,420,453.83,355.11,855.4,356.21,867.34s16.65,24.83,16.65,24.83-2.45,24.71-36.54,33.25-98.5-44.61-116.18-43.62S87.61,909.05,66.85,892.21s-63.9-55-70.73-122S-6.38,494.65,130.49,117.06Z"/><path class="cls-24" d="M305.72-139.49C294.59-92.24,254.2-1.49,167.3,155.58,32.05,400,53.29,536.18,86,550.05c11.41,4.84,21.75,11.06,34.45,4.32,3.84-2,1.87-11.27.83-14.71-12.14-39.91,32.91-35.68,44.36-74.47,31.51-106.66,98-200.36,132.89-305,8.4-25.21,23.77-53.08,26.18-79.7C326,67,313.7,45,320.36,32.87c13.5-24.54,60-44.59,86.5-36.74C460,11.84,392.75,90,378.35,111.38c-12,17.85-30.31,31.41-41.4,49.9C270.55,272,197.27,388.6,192.79,522c-.71,21.29-27.09,152.22-4.41,152.49,6.94.08,26.25-17.77,32.53-22C292.12,604.44,305.79,546.76,324,465c26.69-120,114.53-309,211.46-384.77,24.73-19.33,53.73-32.54,81-47.88C647.38,15,688.8-9.75,729.26-16.16l.27.11c21.2,8.52,23.29,35.88,23.29,35.88S731,7.65,707.18,36.69,455.33,281,420,453.83,355.11,855.4,356.21,867.34s16.65,24.83,16.65,24.83-2.45,24.71-36.54,33.25-98.5-44.61-116.18-43.62S87.61,909.05,66.85,892.21s-63.9-55-70.73-122-2.5-275.59,134.37-653.18C164.1,24.36,259.3-108.93,305.72-139.49Z"/><path class="cls-26" d="M2478.12,947.89c3.44-7.8,1-17.1,0-25.17-1.17-9.53-4.94-48.71-11.71-51.72L2125.87,760.7c-14.95-6.63-32.17-.45-38.45,13.78l-202,387.37c-2.28,5.18,8.57,55.21,9.54,60.47a30.18,30.18,0,0,0,17.54,21.86L2249,1393.56c14.95,6.63,32.17.45,38.45-13.79Z"/><path class="cls-26" d="M1953.29,1238.22l237.08,98s-25.79,48.31-19.53,127.55l-227-84.91S1907.7,1288.54,1953.29,1238.22Z"/><path class="cls-27" d="M2190.37,1336.19l5.1,9.32s-28.71,39.32-15.54,117.68l-9.95,1S2155.94,1384.65,2190.37,1336.19Z"/><path class="cls-28" d="M2443.53,1009.54c-.35-.06-.7-.12-1.05-.2-7.49-1.78-11.84-10.57-9.71-19.62s9.95-14.94,17.45-13.17A11.92,11.92,0,0,1,2455,979c-7.17-1-14.37,4.74-16.41,13.37C2437,999.2,2439.13,1005.93,2443.53,1009.54Z"/><path class="cls-28" d="M2419.82,1062.61c-.35,0-.7-.11-1.05-.19-7.49-1.78-11.85-10.57-9.71-19.62s10-15,17.45-13.17a11.92,11.92,0,0,1,4.81,2.4c-7.17-1-14.37,4.74-16.41,13.37C2413.29,1052.27,2415.42,1059,2419.82,1062.61Z"/><path class="cls-28" d="M2468.57,896c6.29-14.23-.72-31.18-15.67-37.81L2116.33,708.82c-14.95-6.64-32.17-.45-38.45,13.78l-190.64,431.89c-6.28,14.23.73,31.17,15.68,37.81l336.57,149.38c15,6.63,32.17.45,38.45-13.79Z"/><path class="cls-29" d="M2439.25,909c5.65-12.79-.65-28-14.09-34L2122.54,740.74c-13.44-6-28.93-.41-34.57,12.39l-171.41,388.32c-5.65,12.8.66,28,14.1,34l302.62,134.31c13.44,6,28.92.4,34.57-12.4Z"/><path class="cls-30" d="M2425.55,915.15c5.35-12.13-.62-26.56-13.36-32.21L2125.46,755.68c-12.74-5.66-27.41-.39-32.76,11.74l-162.41,367.94c-5.35,12.12.62,26.56,13.35,32.21l286.74,127.26c12.74,5.66,27.41.38,32.76-11.74Z"/><path class="cls-31" d="M2088.36,924.17q11.71,5,14.77,16.16,3.67,13.26-6,36.26t-21.83,29.62q-10,5.49-21.75.52a25.1,25.1,0,0,1-15.15-17.12q-3.37-12.14,6.45-35.4,9.63-22.85,21.79-29.51Q2076.65,919.2,2088.36,924.17ZM2082.93,937a8.39,8.39,0,0,0-5.76-.33q-3,.85-6.12,5-4.12,5.34-10.13,19.56t-6.83,20.16c-.54,4-.34,6.82.62,8.61a8.57,8.57,0,0,0,10,4.21q3-.86,6.12-5,4.11-5.28,10.11-19.5t6.82-20.16q.83-5.93-.59-8.64A8.35,8.35,0,0,0,2082.93,937Z"/><path class="cls-31" d="M2098.84,1002.29l15.65,4.7c-.92,3.2-.92,5.87,0,8a9.19,9.19,0,0,0,5.17,4.8q4.78,2,10-1t12-16.49a20,20,0,0,1-17.44.6,23.7,23.7,0,0,1-13.31-14.33q-3.78-10.29,1.19-22.09,5.19-12.3,15.66-16.73t21.73.35a27.15,27.15,0,0,1,16.12,18q3.84,12.86-5.35,34.63-9.34,22.17-21.69,28.51t-25.48.76q-9.46-4-13.16-11.53T2098.84,1002.29Zm49.26-19q3.17-7.5,1.48-13.09t-6.21-7.51a9.65,9.65,0,0,0-8.55.37q-4.26,2.19-7.52,9.91t-1.77,12.81a10.51,10.51,0,0,0,6.15,6.93,10.36,10.36,0,0,0,9-.34Q2145.21,990.12,2148.1,983.27Z"/><path class="cls-31" d="M2177.7,1007l6.54-15.5,15.46,6.56-6.54,15.5Zm-18.17,43.07,6.54-15.5,15.45,6.56-6.54,15.5Z"/><path class="cls-31" d="M2199.27,1041.66l15.72,4.53q-1.69,6,.15,10.4a11.45,11.45,0,0,0,6.31,6.25,11.29,11.29,0,0,0,9.6-.22q4.8-2.25,7.41-8.42c1.65-3.9,1.9-7.43.78-10.6a10.85,10.85,0,0,0-6.21-6.66,29,29,0,0,0-7.58-1.85l7-11.91q6.2,2.82,10.72,1.33a10.54,10.54,0,0,0,6.54-6.29,9.58,9.58,0,0,0,.33-7.54,9.42,9.42,0,0,0-5.41-5.15,10.11,10.11,0,0,0-7.93-.12q-4,1.58-6.81,6.61l-13.21-8.47a34.53,34.53,0,0,1,9.42-9.82,21.92,21.92,0,0,1,11.27-3.35,30.57,30.57,0,0,1,13.08,2.59q11.39,4.83,15.18,15a20.69,20.69,0,0,1,0,15.86q-4.5,10.65-18.77,12.06a20.47,20.47,0,0,1,8.26,11.38,21.1,21.1,0,0,1-1.13,14.28,26.3,26.3,0,0,1-15.41,14.85q-10.92,4.21-22.47-.69-10.95-4.65-15.48-14A27,27,0,0,1,2199.27,1041.66Z"/><path class="cls-31" d="M2281,1024.58l6.08-14.4,52.85,22.43-4.75,11.25q-9.27,3.67-21.13,12.88a117.14,117.14,0,0,0-21.14,21.3,103.68,103.68,0,0,0-13.75,22.81l-14.9-6.32a112.76,112.76,0,0,1,21.33-31.27,123.35,123.35,0,0,1,30.56-23.77Z"/><path class="cls-31" d="M2289.7,968.48l-6.17-4a11.24,11.24,0,0,1,6.4-4.34q3.57-.78,9,1.52,4.93,2.08,6.84,4.28a8,8,0,0,1,2.14,4.41q.22,2.22-1.8,7l-3.72,8.58a32.42,32.42,0,0,0-1.93,5.58,17.2,17.2,0,0,0-.26,4.3l-7.28-3.09c0-.57.08-1.4.21-2.48.06-.49.1-.81.11-1a14.15,14.15,0,0,1-5.2,1,12.4,12.4,0,0,1-5-1,10.26,10.26,0,0,1-5.79-5.21,8.49,8.49,0,0,1,0-7,8.57,8.57,0,0,1,2.91-3.73,7.91,7.91,0,0,1,4.35-1.5,26.89,26.89,0,0,1,6.58.76,43.2,43.2,0,0,0,7.92,1.22l.31-.73a4.21,4.21,0,0,0,.23-3.48c-.44-.9-1.64-1.76-3.57-2.58a5.74,5.74,0,0,0-3.4-.53A5.86,5.86,0,0,0,2289.7,968.48Zm7.32,10.17a48,48,0,0,1-5-.77,14.34,14.34,0,0,0-4.55-.41,3.33,3.33,0,0,0-2.54,2,4,4,0,0,0,0,3.17,4.4,4.4,0,0,0,2.46,2.38,7,7,0,0,0,4.35.3,5.08,5.08,0,0,0,2.79-1.7,15.94,15.94,0,0,0,1.81-3.48Z"/><path class="cls-31" d="M2317.07,970.07l6.79,2.87-1.61,3.81q5.51-2.89,10.54-.76a10.2,10.2,0,0,1,4.17,3.07,9.22,9.22,0,0,1,1.82,4.71,13.85,13.85,0,0,1,5.36-1.66,10.5,10.5,0,0,1,5,.82,11.07,11.07,0,0,1,4.66,3.45,8.34,8.34,0,0,1,1.62,5,17.48,17.48,0,0,1-1.68,6.1l-7.53,17.83-7.36-3.12,6.73-15.94q1.76-4.15,1.5-5.68a3.78,3.78,0,0,0-2.47-2.91,5.39,5.39,0,0,0-3.31-.29,5.66,5.66,0,0,0-3.13,1.93,21.73,21.73,0,0,0-3,5.51l-5.65,13.4-7.36-3.12,6.45-15.29a23.15,23.15,0,0,0,1.82-5.42,3.71,3.71,0,0,0-.47-2.28,4.22,4.22,0,0,0-2-1.53,5.88,5.88,0,0,0-3.45-.38,5.46,5.46,0,0,0-3.07,1.83,21.39,21.39,0,0,0-3,5.5l-5.72,13.55L2305.3,998Z"/><path class="cls-32" d="M2106.94,1140.37a14,14,0,0,0-7.41-18.34l-87.71-37.22a13.94,13.94,0,0,0-18.29,7.43L1982.66,1118a14,14,0,0,0,7.41,18.34l87.71,37.22a13.94,13.94,0,0,0,18.29-7.43Z"/><polygon class="cls-32" points="2021.67 1019.23 2144.2 1071.22 2140.64 1079.65 2018.11 1027.65 2021.67 1019.23"/><path class="cls-32" d="M2143.4,829.27a4,4,0,0,0-2.11-5.21l-24.91-10.57a4,4,0,0,0-5.2,2.11l-3.08,7.32a4,4,0,0,0,2.1,5.21l24.91,10.57a4,4,0,0,0,5.2-2.11Z"/><path class="cls-32" d="M2265.28,1207.56a14,14,0,0,0-7.42-18.34L2170.15,1152a13.94,13.94,0,0,0-18.29,7.43L2141,1185.19a14,14,0,0,0,7.41,18.34l87.72,37.22a13.94,13.94,0,0,0,18.28-7.43Z"/><path class="cls-32" d="M2188.4,848.38a4,4,0,0,0-2.1-5.21l-24.92-10.57a4,4,0,0,0-5.19,2.11L2153.1,842a4,4,0,0,0,2.11,5.2l24.91,10.58a4,4,0,0,0,5.19-2.12Z"/><path class="cls-33" d="M1938.2,1164.31a23.09,23.09,0,0,1,1.22-15.13l162.41-367.94c5.36-12.13,20-17.39,32.77-11.74l286.72,127.25a27,27,0,0,1,5.48,3.27,25.72,25.72,0,0,0-14.61-17.08L2125.48,755.68c-12.73-5.65-27.42-.39-32.77,11.74l-162.42,367.94C1925.79,1145.59,1929.34,1157.45,1938.2,1164.31Z"/><path class="cls-34" d="M2371.75,822.18l81.15,36c15,6.64,22,23.58,15.7,37.82l-14.79,33.5c-49.53,25.65-99.44,50.62-147.75,78.5-117.81,68-231,142-349.48,208.08L1903,1192.3c-15-6.62-22-23.57-15.7-37.8l29.76-67.43c1.42-.87,2.83-1.72,4.25-2.6C2069.39,993.44,2218.58,904.28,2371.75,822.18Zm-126.38-56.09,85.5,37.95C2198.69,871.68,2070,947.7,1944,1025.89l53.59-121.41A2426.53,2426.53,0,0,1,2245.37,766.09Z"/><path class="cls-15" d="M1330.33,2525.19s21.43-366.54,36.64-415.13,147.42-224.48,170.52-245.42,102.86-50.27,102.86-50.27S1843,1415.47,1879.53,1358s115.7-182.91,173.06-196,72.58,17.27,74.54,37-14.12,103.64-32.08,155c-14.71,42.06-55.76,141.7-62.37,163.55s-52.5,170.44-52.5,170.44,17.12-14.22,25.63-18.55,92.66,8.46,109.29,19.55,47.58,76.44,52.28,90.6-3.91,119.92-3.91,119.92,15.5-11.83,25.74-11.56,73,28.12,83.41,49.11,39.32,180.72,39.32,180.72a37.79,37.79,0,0,1,18,3.68c8.81,4.41,50.59,41.31,67.15,56s28.66,131.88,33.63,163.58,9.93,169.35,9.93,169.35Z"/><path class="cls-35" d="M2094.43,1160.72c23.64,5.9,31.33,24.65,32.7,38.27,2,19.68-14.12,103.64-32.08,155-14.71,42.06-55.76,141.7-62.37,163.55s-52.5,170.44-52.5,170.44,17.12-14.22,25.63-18.55,92.66,8.46,109.29,19.55,47.58,76.44,52.28,90.6-3.91,119.92-3.91,119.92,15.5-11.83,25.74-11.56,73,28.12,83.41,49.11,39.32,180.72,39.32,180.72a37.79,37.79,0,0,1,18,3.68c8.81,4.41,50.59,41.31,67.15,56s28.66,131.88,33.63,163.58c.08.49.16,1,.23,1.55-37.22-24.6-30.48-119.54-49-141.69-33.89-40.53-48.35,69.84-94.42,24.64-60-58.9,9.59-174.25-55.91-219-8.44-5.76-29.18-27.74-40.63-26.65-46.69,4.4-80,114-134.71,27.45-39.8-62.9,55.79-227-14.06-291.36-41.41-38.16-152.74,124-165.61,45.54C1860.36,1662.69,2081.31,1269.25,2094.43,1160.72Z"/><path class="cls-36" d="M1771.14,2086.76c-7.73-3.89-12.05-10.38-21.24-11.57-33-4.24-46.73,26.38-26.35,49.5,28.87,32.78,95.76,15.45,133.51,28.56,50,17.38,85.33,57.19,132.45,78.43,32.07,14.46,77,26.19,112,27.28,16.54.51,34.71-12.12,50.45-6.74,32.62,11.15,47.61,45.31,76.78,61.63,29.38,16.45,125.36,86.92,157.27,75.12,9.84-3.65,16.13-18,20.79-26.1,4.21-7.29-40.74-17.28-50.24-18.51-25.79-3.34-39.78-21.91-54.35-42.6-50.68-72-71-36.36-143-59.12-27.25-8.61-35.21-38-56.2-53.68-16-12-33.27-22.68-52.06-30.07-23.94-9.42-51.33-7.89-76.42-10.35C1915,2142.7,1815.48,2129.48,1771.14,2086.76Z"/><path class="cls-21" d="M2045.53,1164.16c-19.41,24-50.65,64.7-61.37,90.78-16,38.88-13.34,55.06-2.84,58s49.12,18.35,49.12,18.35a256.62,256.62,0,0,0-46.2-4.36c-26.82-.25-80.88,75.57-97,120.42s-39.13,110.6-16.31,123.47,53.69,22.08,53.69,22.08,37.07,29.93-35.81,12.49-88.64,21.79-103,43.67-148.25,367.29-152.29,429.31,29.44,120.93,33.75,180.64,3.1,173.26,73.16,198.78c37.51,13.68,124.91,38.85,198,59.28l-608.07,8.11s21.43-366.54,36.64-415.13,147.42-224.48,170.52-245.42,102.86-50.27,102.86-50.27S1843,1415.47,1879.53,1358C1914.59,1302.92,1988.9,1185.15,2045.53,1164.16Z"/><path class="cls-22" d="M1637.49,1815.44c-19.12,41.42-55.11,119.42-73.38,159.18-25.63,55.72-38,111.33-41.61,135.65s-18,87.81-41.09,90.32-29.47-26.76-12.33-55.61,29.19-50,47.81-110.34,37-79,54.53-108.37-46.3-20.86-82.69,21-104.61,160.15-111.79,203.5c-6.26,37.87-27.84,169.27-35.6,206.93,7.48-103.56,17.45-221.57,25.63-247.69,15.22-48.58,147.42-224.48,170.52-245.42C1558,1846.09,1623,1820.91,1637.49,1815.44Z"/><path class="cls-21" d="M2313.59,2117.75a37.72,37.72,0,0,1,16.32,3.72c5.94,3,26.91,20.75,45,36.51-.37,1.93-1.56,2.56-3.85,1.4-15.24-7.81-34.5-23.45-37.69-17.18s16.18,67.92,18.49,88.28,30.14,52.53,44.94,74,4.67,22.8-36.16,13-26.67-48.38-33.28-90.74C2322.41,2195.14,2316.36,2142.47,2313.59,2117.75Zm-148.28-219.56c4.43-3.1,15.82-10.45,23.9-10.23,5.81.16,28.58,9.21,49.07,20.86a54.64,54.64,0,0,1-16.7-1.58c-19.36-4.88-38.22,7.22-37.92,18.09s-8.47,89.4-8.35,123.08,3,74.38,8.61,105.21-7.17,59.68-27.84,52.83-9.62-25.17-7.37-55.57C2150.74,2123.62,2162.83,1936.64,2165.31,1898.19Zm-184.93-210.34c1.91-1.58,17.45-14.34,25.43-18.4,6.5-3.3,56.94,3.35,87.92,11.61-1.83,1.41-3.82,1.8-5.8.56-9.58-6-63.54-8.5-80.17,3.71s-79.3,234.83-86.87,269.25-4.91,40.62-5.1,67.33-11.93,40-32.39,52-24.92-1.91-19-32.2,38.36-104.85,52.72-145,33.11-103,42.16-137.24,20.85-71.42,20.85-71.42Z"/><path class="cls-37" d="M2045.45,1167.44c-23.65,13.73-61.61,81.77-70,103.61s-13.69,40.84,34.72,54.59,64.57,16.09,76.37.18,41.68-88,39.23-113.55-5.11-45.12-28.41-51.2C2066.49,1153,2052.64,1163.27,2045.45,1167.44Z"/><path class="cls-38" d="M2070.62,1158.3c-3.22,4.15-6.7,8.09-10.11,12.17-9.67,11.58-17,25.15-25.15,37.84-6.82,10.58-14.53,20.63-20.86,31.52-4.34,7.45-7,15.8-10.66,23.6-4.63,9.83-8,21-6,32.08,1,5.56,9.93,10.76,14.33,13.35,7.8,4.58,16.79,1.27,25,4.34,11,4.09,17.53,14.62,28.42,18.45a34.16,34.16,0,0,0,13.5,1.31c-11.71,7.48-29.77,3.83-69-7.32-48.41-13.75-43.13-32.76-34.72-54.59s46.38-89.88,70-103.61C2050.11,1164.74,2057.56,1159.47,2070.62,1158.3Z"/><ellipse class="cls-39" cx="3218.55" cy="2455.32" rx="569.62" ry="32.02" transform="translate(-615.9 1157.37) rotate(-18.64)"/><path class="cls-11" d="M2663.17,2547.58l891.89-311.26L3726.82,2212a15.29,15.29,0,0,1,9.93,28.29l-137.16,81.85L2892,2575.28Z"/><path class="cls-40" d="M3740.5,2217.15a15.35,15.35,0,0,1-3.74,23.15l-137.17,81.84L2892,2575.28l-93.4-11.31L3578,2295c3.59-18.86-13.67-40.4-13.67-40.4,16.07,10.83,25.32,31.62,25.32,31.62s65.12-22.9,103.5-40.89A296.17,296.17,0,0,0,3740.5,2217.15Z"/><path class="cls-41" d="M2237.61,209.21a54.2,54.2,0,0,0-54.13,54.21c-.15,119.71-.5,407.58-.68,554.06a27.79,27.79,0,0,0,50.61,16c17.57-25.25,37.12-53.32,54.1-77.71a146.77,146.77,0,0,1,120.43-63H3424.2a54.2,54.2,0,0,0,54.12-54.28v-375a54.2,54.2,0,0,0-54.12-54.28Z"/><path class="cls-42" d="M2642.41,295.19h-.35c-.61,0-1.21,0-1.82,0l2.69,0c-86.86,0-157.38,70.71-157.38,157.8s70.52,157.81,157.38,157.81l-2.69,0c.61,0,1.21,0,1.82,0h.87a156.33,156.33,0,0,0,96.57-33.23,5.3,5.3,0,0,0,3.54-2.49c.11-.2.21-.4.31-.61a157.72,157.72,0,0,0,57-121.12,5.31,5.31,0,0,0,.35-1.91,5.79,5.79,0,0,0-.38-2c-1.87-85.48-71.66-154.29-157.34-154.29Zm1.43,252-1,53c20.51-.27,39.4-10.6,54.81-27.68a119.31,119.31,0,0,0,8.47-10.54h0c-3.37-1.41-6.78-2.73-10.2-3.95a198.94,198.94,0,0,0-19.2-5.79,186,186,0,0,0-20.38-3.82q-6.23-.81-12.46-1.19Zm-10.62-.32A175.54,175.54,0,0,0,2574.55,557a124.79,124.79,0,0,0,11.87,15.51c13.14,14.56,28.81,24.21,45.85,26.91Zm82.85,19.5a132.62,132.62,0,0,1-10.49,13.27,110.94,110.94,0,0,1-12,11.52,146.37,146.37,0,0,0,34.75-18.48Q2722.13,569.23,2716.07,566.34Zm-151.59-5.42a134.79,134.79,0,0,0-13.51,6.72,146.67,146.67,0,0,0,38.12,22.27,113.47,113.47,0,0,1-10.55-10.3A136.8,136.8,0,0,1,2564.48,560.92Zm225.15-104.09-41.37.23c-.66,38.44-10.57,73.44-26.4,100.23l.26.13c2.6,1.26,5.16,2.57,7.71,3.92s5,2.71,7.44,4.13l.15.08A147,147,0,0,0,2789.63,456.83Zm-253.73,1.4-39.62.22a146.93,146.93,0,0,0,46.26,101.84,129.77,129.77,0,0,1,16.54-8.66C2545.26,525.94,2536.67,493.57,2535.9,458.23Zm201.72-1.11-92.15.51L2644,536.41a200.82,200.82,0,0,1,68.1,16.44C2727.47,527.45,2737,493.94,2737.62,457.12Zm-104.21,79,1.42-78.42-88.3.49c.77,33.94,9,65,22.44,89.44A185,185,0,0,1,2633.41,536.1Zm-83-197.25a147.06,147.06,0,0,0-54.09,108.94l39.63-.22c.89-39.14,11.36-74.64,27.91-101.43Q2557.15,342.8,2550.36,338.85Zm23.11,11.87c-16,25.36-26,59.32-26.93,96.8L2635,447l1.42-79.2A204.34,204.34,0,0,1,2573.47,350.72Zm141.9,8a185.44,185.44,0,0,1-68.3,9.82L2645.66,447l91.9-.51C2736.62,413.23,2728.47,382.81,2715.37,358.76ZM2743.65,346a146.58,146.58,0,0,1-18.27,9c13.45,25.26,21.87,56.89,22.81,91.42l41.33-.23A146.86,146.86,0,0,0,2743.65,346Zm-95.46-39.87-.92,51.69a176,176,0,0,0,62.51-8.48,124.66,124.66,0,0,0-12.08-15.83C2683.63,317.94,2666.66,308,2648.19,306.15Zm-10.63-.14c-19.08,1.37-36.65,11.46-51.14,27.52-2.34,2.59-4.61,5.35-6.78,8.24l.11.05c3.1,1.34,6.22,2.61,9.39,3.81q8.68,3.28,17.67,5.76a189.53,189.53,0,0,0,18.81,4.15q5.46.91,11,1.49h.08Zm56,8.85a110.94,110.94,0,0,1,12,11.52A135.21,135.21,0,0,1,2720,345.64a143.71,143.71,0,0,0,15.17-7.07A146.65,146.65,0,0,0,2693.57,314.86Zm-104.48,1.22a146.38,146.38,0,0,0-29.47,15.79l.26.15q4.82,2.66,9.72,5.09l.19.1a129.93,129.93,0,0,1,8.75-10.83A113.47,113.47,0,0,1,2589.09,316.08Z"/><path class="cls-42" d="M3216,295.19h-.34c-.61,0-1.21,0-1.83,0l2.7,0c-86.86,0-157.38,70.71-157.38,157.8s70.52,157.81,157.38,157.81l-2.7,0c.62,0,1.22,0,1.83,0h.87a156.35,156.35,0,0,0,96.57-33.23,5.32,5.32,0,0,0,3.54-2.49c.11-.2.21-.4.31-.61a157.72,157.72,0,0,0,56.95-121.12,5.31,5.31,0,0,0,.35-1.91,5.79,5.79,0,0,0-.38-2C3372,364,3302.16,295.19,3216.48,295.19Zm1.44,252-1,53c20.52-.27,39.41-10.6,54.82-27.68a119.31,119.31,0,0,0,8.47-10.54h0q-5.05-2.11-10.21-3.95a198.09,198.09,0,0,0-19.2-5.79,185.15,185.15,0,0,0-20.38-3.82q-6.21-.81-12.45-1.19Zm-10.62-.32A175.54,175.54,0,0,0,3148.1,557,124.79,124.79,0,0,0,3160,572.46c13.14,14.56,28.8,24.21,45.85,26.91Zm82.85,19.5a132.62,132.62,0,0,1-10.49,13.27,111.87,111.87,0,0,1-12,11.52,146.37,146.37,0,0,0,34.75-18.48Q3295.68,569.23,3289.62,566.34ZM3138,560.92a133.68,133.68,0,0,0-13.51,6.72,146.67,146.67,0,0,0,38.12,22.27,113.47,113.47,0,0,1-10.55-10.3A136.8,136.8,0,0,1,3138,560.92Zm225.15-104.09-41.37.23c-.66,38.44-10.57,73.44-26.41,100.23l.27.13c2.6,1.26,5.16,2.57,7.7,3.92s5,2.71,7.45,4.13l.15.08A147,147,0,0,0,3363.18,456.83Zm-253.73,1.4-39.62.22a146.93,146.93,0,0,0,46.26,101.84,129.77,129.77,0,0,1,16.54-8.66C3118.81,525.94,3110.21,493.57,3109.45,458.23Zm201.72-1.11-92.15.51-1.43,78.78a200.82,200.82,0,0,1,68.1,16.44C3301,527.45,3310.51,493.94,3311.17,457.12ZM3207,536.1l1.42-78.42-88.3.49c.76,33.94,9,65,22.44,89.44A185,185,0,0,1,3207,536.1Zm-83.05-197.25a147.06,147.06,0,0,0-54.09,108.94l39.63-.22c.89-39.14,11.36-74.64,27.91-101.43Q3130.7,342.8,3123.91,338.85ZM3147,350.72c-16,25.36-26,59.32-26.93,96.8l88.49-.5,1.42-79.2A204.27,204.27,0,0,1,3147,350.72Zm141.9,8a185.44,185.44,0,0,1-68.3,9.82L3219.21,447l91.9-.51C3310.16,413.23,3302,382.81,3288.92,358.76ZM3317.2,346a147.31,147.31,0,0,1-18.27,9c13.45,25.26,21.86,56.89,22.81,91.42l41.33-.23A146.86,146.86,0,0,0,3317.2,346Zm-95.46-39.87-.92,51.69a176,176,0,0,0,62.51-8.48,124.66,124.66,0,0,0-12.08-15.83C3257.18,317.94,3240.21,308,3221.74,306.15Zm-10.63-.14c-19.09,1.37-36.65,11.46-51.14,27.52-2.34,2.59-4.61,5.35-6.78,8.24l.11.05q4.65,2,9.38,3.81,8.7,3.28,17.68,5.76a189.53,189.53,0,0,0,18.81,4.15q5.46.91,10.95,1.49h.08Zm56,8.85a111.87,111.87,0,0,1,12,11.52,135.21,135.21,0,0,1,14.42,19.26,143.71,143.71,0,0,0,15.17-7.07A146.65,146.65,0,0,0,3267.12,314.86Zm-104.48,1.22a146.11,146.11,0,0,0-29.47,15.79l.26.15q4.82,2.66,9.72,5.09l.19.1a129.93,129.93,0,0,1,8.75-10.83A113.47,113.47,0,0,1,3162.64,316.08Z"/><path class="cls-43" d="M2452.36,331.11c0-10.09-7.28-18.28-16.23-18.28H2333.24c-9,0-16.23,8.19-16.23,18.28v36.55c0,10.09,7.27,18.28,16.23,18.28h102.89c8.95,0,16.23-8.19,16.23-18.28Z"/><path class="cls-44" d="M2452.36,440.2c0-10.09-7.28-18.28-16.23-18.28H2333.24c-9,0-16.23,8.19-16.23,18.28v36.55c0,10.09,7.27,18.28,16.23,18.28h102.89c8.95,0,16.23-8.19,16.23-18.28Z"/><path class="cls-43" d="M3027.81,331.11c0-10.09-7.38-18.28-16.46-18.28H2907c-9.09,0-16.46,8.19-16.46,18.28v36.55c0,10.09,7.37,18.28,16.46,18.28h104.33c9.08,0,16.46-8.19,16.46-18.28Z"/><path class="cls-44" d="M3027.81,440.2c0-10.09-7.38-18.28-16.46-18.28H2907c-9.09,0-16.46,8.19-16.46,18.28v36.55c0,10.09,7.37,18.28,16.46,18.28h104.33c9.08,0,16.46-8.19,16.46-18.28Z"/><g class="cls-45"><path d="M4224.47,2092c106.87,61.62,107.09,162.08,1.56,223.48-105.53,61.62-277.19,61.62-384.29-.22-106.42-61.62-107.09-161.42-1.33-223S4118.27,2030.42,4224.47,2092Z"/></g><path class="cls-31" d="M3880.25,2238.26h-.89l-65.69-337.56,543.26-8.48-66.13,346h0c-4.13,27-23.88,53.24-59.18,73.9-80.16,46.66-210.4,46.66-291.45-.23C3904.58,2291.31,3884.63,2265.11,3880.25,2238.26Z"/><path class="cls-46" d="M4276.79,1780.37c106.65,62.07,107.1,162.09,1.12,223.7-105.76,61.62-277.42,61.62-384.07-.22-106.42-61.62-107.09-161.41-1.33-223S4170.37,1719,4276.79,1780.37Z"/><path class="cls-47" d="M4217.57,1810.51c78.15,45.32,78.15,118.1.89,163.42-77,44.88-202.61,44.88-280.76-.22-77.7-45.1-78.37-117.88-1.11-163.2C4014.07,1765.86,4139.87,1765.63,4217.57,1810.51Z"/><path class="cls-48" d="M3882.71,1913s-200.38-254.07-3.34-710.86c0,0,173,218.57,73.7,779.62C3952.84,1981.75,3914.33,1967.24,3882.71,1913Z"/><path class="cls-47" d="M3881.38,1205.26c4,175.92,13.8,481.56,37.85,753.72,18.92,17,33.61,22.77,33.61,22.77C4045.46,1458.66,3901.41,1233.39,3881.38,1205.26Z"/><path class="cls-48" d="M3980.9,1882s-160.53-281.08,102.19-703.48c0,0,138.93,242-42.3,781.85C4040.79,1960.32,4004.72,1940.22,3980.9,1882Z"/><path class="cls-47" d="M4083.09,1178.47c-22.26,174.36-71.69,477.54-87.94,750.14,16,20.1,30,27.91,30,27.91C4222,1485,4098.68,1209.05,4083.09,1178.47Z"/><path class="cls-48" d="M3991.36,1992.91s-240.23-85.06-300.12-473.08c0,0,207.06,73.23,376,489.38C4067.28,2009.21,4035.22,2015.68,3991.36,1992.91Z"/><path class="cls-47" d="M3693.91,1520.94c76.37,116.1,210.84,315.69,341.09,487.15,19.82,3.58,32.06,1.12,32.06,1.12C3909.87,1621.19,3719.29,1531.21,3693.91,1520.94Z"/><path class="cls-48" d="M4098,1955.4s-128.69-147.35-23.38-429.1c0,0,110.88,126.81,68.13,468.62C4142.76,1994.92,4118.94,1987.33,4098,1955.4Z"/><path class="cls-47" d="M4076.19,1528.09c7.57,106.05,22.71,290.23,45.42,453.66,12,9.6,21.15,13,21.15,13C4182.61,1676.55,4089.1,1544.39,4076.19,1528.09Z"/><path class="cls-48" d="M4155,1860.74s-122.9-223.7,89.5-553.68c0,0,106.42,193.12-43.64,616.19C4200.87,1923.25,4172.82,1907.18,4155,1860.74Z"/><path class="cls-47" d="M4245.85,1310c-19.82,137.52-52.1,376.41-68.13,591.18,12.46,15.63,23.15,22.1,23.15,22.1C4340.69,1528.76,4257.65,1334.75,4245.85,1310Z"/><path class="cls-48" d="M4186.4,1902.72s-28.94-188.66,204.16-365.48c0,0,25.39,162.53-187.69,421.07C4202.87,1958.08,4187.51,1939.78,4186.4,1902.72Z"/><path class="cls-47" d="M4390.79,1539.47c-49.21,91.09-132,250.72-198.6,397.63,4.9,14.06,10.68,21.21,10.68,21.21C4401.47,1717.19,4392.79,1559.79,4390.79,1539.47Z"/></g></svg>