<?xml version="1.0" encoding="UTF-8" standalone="no"?><!DOCTYPE svg PUBLIC "-//W3C//DTD SVG 1.1//EN" "http://www.w3.org/Graphics/SVG/1.1/DTD/svg11.dtd"><svg width="4000px" height="2500px" version="1.1" xmlns="http://www.w3.org/2000/svg" xmlns:xlink="http://www.w3.org/1999/xlink" xml:space="preserve" xmlns:serif="http://www.serif.com/" style="fill-rule:evenodd;clip-rule:evenodd;stroke-linejoin:round;stroke-miterlimit:2;"><g><g transform="matrix(0.640347,0,0,0.640347,2406.36,-534.777)"><g><g transform="matrix(1.56165,0,0,1.56165,-3757.24,834.803)"><rect x="111.817" y="218.725" width="3805.79" height="2107.56" style="fill:rgb(174,211,240);"/></g><g transform="matrix(0.253253,0,0,1.56165,-3610.94,834.803)"><rect x="111.817" y="218.725" width="3805.79" height="2107.56" style="fill:rgb(134,189,233);"/></g><g transform="matrix(1.56165,0,0,1.56165,-3757.9,835.135)"><path d="M112.235,1415.99L112.235,2326.07L1219.22,2326.07C1046.58,2223.73 882.917,2078.67 742.055,1938.63C592.496,1789.95 470.083,1607.72 292.415,1488.26C234.728,1449.47 172.725,1425.45 112.235,1415.99ZM3918.03,918.88L3918.03,218.512L1409.06,218.512C1578.54,411.132 1797.69,647.789 2061.56,626.758C3021.84,550.22 4105.5,627.868 3918.03,918.88Z" style="fill:rgb(195,220,243);"/></g></g></g><g transform="matrix(1,0,0,1,0.418104,-0.212506)"><rect x="111.817" y="218.725" width="3805.79" height="2107.56" style="fill:none;"/><clipPath id="_clip1"><rect x="111.817" y="218.725" width="3805.79" height="2107.56"/></clipPath><g clip-path="url(#_clip1)"><g transform="matrix(0.640347,0,0,0.640347,2529.1,-881.127)"><g transform="matrix(1.40845,1.11022e-16,-1.11022e-16,1.27906,-2830.85,1601.73)"><rect x="1770.7" y="551.996" width="1785.02" height="13.393" style="fill:white;fill-opacity:0.45;"/></g><g transform="matrix(1.40845,1.11022e-16,-1.11022e-16,1.27906,-2830.85,1760.67)"><rect x="1770.7" y="551.996" width="1785.02" height="13.393" style="fill:white;fill-opacity:0.45;"/></g><g transform="matrix(1.40845,1.11022e-16,-1.11022e-16,1.27906,-2830.85,1919.6)"><rect x="1770.7" y="551.996" width="1785.02" height="13.393" style="fill:white;fill-opacity:0.45;"/></g><g transform="matrix(1.40845,1.11022e-16,-1.11022e-16,1.27906,-2830.85,2078.54)"><rect x="1770.7" y="551.996" width="1785.02" height="13.393" style="fill:white;fill-opacity:0.45;"/></g><g transform="matrix(1.40845,1.11022e-16,-1.11022e-16,1.27906,-2830.85,2237.48)"><rect x="1770.7" y="551.996" width="1785.02" height="13.393" style="fill:white;fill-opacity:0.45;"/></g><g transform="matrix(1.40845,1.11022e-16,-1.11022e-16,1.27906,-2830.85,2396.41)"><rect x="1770.7" y="551.996" width="1785.02" height="13.393" style="fill:white;fill-opacity:0.45;"/></g><g transform="matrix(1.40845,1.11022e-16,-1.11022e-16,1.27906,-2830.85,2555.35)"><rect x="1770.7" y="551.996" width="1785.02" height="13.393" style="fill:white;fill-opacity:0.45;"/></g><g transform="matrix(1.40845,1.11022e-16,-3.33067e-16,1.73916,-2830.85,1347.76)"><rect x="1888.91" y="451.812" width="9.909" height="763.69" style="fill:white;fill-opacity:0.55;"/></g><g transform="matrix(1.40845,1.11022e-16,-3.33067e-16,1.73916,-2666.72,1347.76)"><rect x="1888.91" y="451.812" width="9.909" height="763.69" style="fill:white;fill-opacity:0.55;"/></g><g transform="matrix(1.40845,1.11022e-16,-3.33067e-16,1.73916,-2502.59,1347.76)"><rect x="1888.91" y="451.812" width="9.909" height="763.69" style="fill:white;fill-opacity:0.55;"/></g><g transform="matrix(1.40845,1.11022e-16,-3.33067e-16,1.73916,-2338.46,1347.76)"><rect x="1888.91" y="451.812" width="9.909" height="763.69" style="fill:white;fill-opacity:0.55;"/></g><g transform="matrix(1.40845,1.11022e-16,-3.33067e-16,1.73916,-2174.33,1347.76)"><rect x="1888.91" y="451.812" width="9.909" height="763.69" style="fill:white;fill-opacity:0.55;"/></g><g transform="matrix(1.40845,1.11022e-16,-3.33067e-16,1.73916,-2010.2,1347.76)"><rect x="1888.91" y="451.812" width="9.909" height="763.69" style="fill:white;fill-opacity:0.55;"/></g><g transform="matrix(1.40845,1.11022e-16,-3.33067e-16,1.73916,-1846.07,1347.76)"><rect x="1888.91" y="451.812" width="9.909" height="763.69" style="fill:white;fill-opacity:0.55;"/></g><g transform="matrix(1.40845,1.11022e-16,-3.33067e-16,1.73916,-1681.94,1347.76)"><rect x="1888.91" y="451.812" width="9.909" height="763.69" style="fill:white;fill-opacity:0.55;"/></g><g transform="matrix(1.40845,1.11022e-16,-3.33067e-16,1.73916,-1517.81,1347.76)"><rect x="1888.91" y="451.812" width="9.909" height="763.69" style="fill:white;fill-opacity:0.55;"/></g><g transform="matrix(1.40845,1.11022e-16,-3.33067e-16,1.73916,-1353.68,1347.76)"><rect x="1888.91" y="451.812" width="9.909" height="763.69" style="fill:white;fill-opacity:0.55;"/></g><g transform="matrix(1.40845,1.11022e-16,-3.33067e-16,1.73916,-1189.55,1347.76)"><rect x="1888.91" y="451.812" width="9.909" height="763.69" style="fill:white;fill-opacity:0.55;"/></g><g transform="matrix(1.40845,1.11022e-16,-3.33067e-16,1.73916,-1025.42,1347.76)"><rect x="1888.91" y="451.812" width="9.909" height="763.69" style="fill:white;fill-opacity:0.55;"/></g><g transform="matrix(1.40845,1.11022e-16,-3.33067e-16,1.73916,-861.295,1347.76)"><rect x="1888.91" y="451.812" width="9.909" height="763.69" style="fill:white;fill-opacity:0.55;"/></g><g transform="matrix(1.40845,1.11022e-16,-3.33067e-16,1.73916,-697.166,1347.76)"><rect x="1888.91" y="451.812" width="9.909" height="763.69" style="fill:white;fill-opacity:0.55;"/></g></g><g transform="matrix(1.0915,0,0,1.0915,-146.588,-18.9569)"><path d="M169.703,1803.44C169.703,1803.44 467.566,1513.76 641.714,1344.4C718.574,1269.65 827.285,1237.49 932.44,1258.4C1576.59,1386.46 3853.21,1839.08 3853.21,1839.08L3790.78,2210.14L214.049,2177.82L169.703,1803.44Z" style="fill:rgb(195,220,243);"/></g><g transform="matrix(1.0915,0,0,1.0915,-146.588,-18.9569)"><path d="M226.749,2177.94L214.049,2177.82L169.703,1803.44C169.703,1803.44 467.566,1513.76 641.714,1344.4C718.574,1269.65 827.285,1237.49 932.44,1258.4C1576.59,1386.46 3853.21,1839.08 3853.21,1839.08L3840.82,1912.75L954.669,1338.96C849.513,1318.05 740.802,1350.21 663.942,1424.96C489.795,1594.32 191.932,1884 191.932,1884L226.749,2177.94Z" style="fill:rgb(173,207,239);"/></g><g transform="matrix(3.86033,-3.02191,3.57855,2.7047,-10727.6,6981)"><g transform="matrix(1,0,0,1,-1.90229,1.37203)"><path d="M2387,715.136L2344.66,670.766L2201.57,670.766L2201.57,933.178L2387,933.178L2387,715.136Z" style="fill-opacity:0.1;"/></g><path d="M2387,715.136L2344.66,670.766L2201.57,670.766L2201.57,933.178L2387,933.178L2387,715.136Z" style="fill:rgb(232,246,255);"/><g transform="matrix(-0.682565,0.00394843,0.00602802,0.699685,3113.2,633.752)"><g transform="matrix(0.239375,-1.62918e-19,-3.25837e-19,0.239375,977.479,223.363)"><path d="M1357.14,286.304C1357.14,275.7 1348.53,267.091 1337.92,267.091L543.995,267.091C533.391,267.091 524.782,275.7 524.782,286.304C524.782,296.908 533.391,305.517 543.995,305.517L1337.92,305.517C1348.53,305.517 1357.14,296.908 1357.14,286.304Z" style="fill:white;"/></g><g transform="matrix(0.239375,-1.62918e-19,-3.25837e-19,0.239375,978.002,282.582)"><path d="M1357.14,286.304C1357.14,275.7 1348.53,267.091 1337.92,267.091L543.995,267.091C533.391,267.091 524.782,275.7 524.782,286.304C524.782,296.908 533.391,305.517 543.995,305.517L1337.92,305.517C1348.53,305.517 1357.14,296.908 1357.14,286.304Z" style="fill:white;"/></g><g transform="matrix(0.385494,-2.62367e-19,-5.24733e-19,0.385494,910.984,-48.4089)"><g transform="matrix(0.900109,0,0,0.801474,59.7802,80.9498)"><rect x="506.059" y="487.605" width="80.05" height="407.837" style="fill:rgb(187,227,248);"/></g><g transform="matrix(0.900109,0,0,0.555165,164.727,301.505)"><rect x="506.059" y="487.605" width="80.05" height="407.837" style="fill:rgb(187,227,248);"/></g><g transform="matrix(0.900109,0,0,0.353623,269.674,481.975)"><rect x="506.059" y="487.605" width="80.05" height="407.837" style="fill:rgb(187,227,248);"/></g><g transform="matrix(0.900109,0,0,0.58284,374.621,276.724)"><rect x="506.059" y="487.605" width="80.05" height="407.837" style="fill:rgb(187,227,248);"/></g><g transform="matrix(0.900109,0,-4.99661e-17,0.839717,479.568,46.7055)"><rect x="506.059" y="487.605" width="80.05" height="407.837" style="fill:rgb(187,227,248);"/></g></g><g transform="matrix(0.196904,-1.34013e-19,-2.68025e-19,0.196904,1008.45,118.563)"><circle cx="584.195" cy="1024.83" r="74.953" style="fill:white;"/></g><g transform="matrix(0.196904,-1.34013e-19,-2.68025e-19,0.196904,1008.97,177.782)"><circle cx="584.195" cy="1024.83" r="74.953" style="fill:white;"/></g><g transform="matrix(0.196904,-1.34013e-19,-2.68025e-19,0.196904,1048.92,118.563)"><circle cx="584.195" cy="1024.83" r="74.953" style="fill:white;"/></g><g transform="matrix(0.196904,-1.34013e-19,-2.68025e-19,0.196904,1049.45,177.782)"><circle cx="584.195" cy="1024.83" r="74.953" style="fill:white;"/></g><g transform="matrix(0.196904,-1.34013e-19,-2.68025e-19,0.196904,1089.4,118.563)"><circle cx="584.195" cy="1024.83" r="74.953" style="fill:white;"/></g><g transform="matrix(0.196904,-1.34013e-19,-2.68025e-19,0.196904,1089.92,177.782)"><circle cx="584.195" cy="1024.83" r="74.953" style="fill:white;"/></g><g transform="matrix(0.196904,-1.34013e-19,-2.68025e-19,0.196904,1130.92,118.563)"><circle cx="584.195" cy="1024.83" r="74.953" style="fill:white;"/></g><g transform="matrix(0.196904,-1.34013e-19,-2.68025e-19,0.196904,1172.44,118.563)"><circle cx="584.195" cy="1024.83" r="74.953" style="fill:white;"/></g></g><g transform="matrix(1,0,0,1,-2.84164,2.97794)"><rect x="2224.62" y="690.598" width="81.348" height="4.702" style="fill:white;"/></g><g transform="matrix(1,0,0,1,-2.84164,14.0151)"><rect x="2224.62" y="690.598" width="81.348" height="4.702" style="fill:white;"/></g><path d="M2344.66,670.766L2342.93,719.997L2387.79,716.319L2344.66,670.766Z" style="fill:rgb(186,228,255);"/><path d="M2344.66,670.766L2343.54,715.482L2387.79,716.319L2344.66,670.766Z" style="fill:rgb(232,246,255);"/></g><g transform="matrix(-3.20401,-3.71058,-4.03354,1.96264,12703.9,9488.42)"><g transform="matrix(1,0,0,1,-1.90229,1.37203)"><path d="M2387,715.136L2344.66,670.766L2201.57,670.766L2201.57,933.178L2387,933.178L2387,715.136Z" style="fill-opacity:0.1;"/></g><path d="M2387,715.136L2344.66,670.766L2201.57,670.766L2201.57,933.178L2387,933.178L2387,715.136Z" style="fill:rgb(232,246,255);"/><g transform="matrix(-0.682565,0.00394843,0.00602802,0.699685,3113.2,633.752)"><g transform="matrix(0.239375,-1.62918e-19,-3.25837e-19,0.239375,977.479,223.363)"><path d="M1357.14,286.304C1357.14,275.7 1348.53,267.091 1337.92,267.091L543.995,267.091C533.391,267.091 524.782,275.7 524.782,286.304C524.782,296.908 533.391,305.517 543.995,305.517L1337.92,305.517C1348.53,305.517 1357.14,296.908 1357.14,286.304Z" style="fill:white;"/></g><g transform="matrix(0.239375,-1.62918e-19,-3.25837e-19,0.239375,978.002,282.582)"><path d="M1357.14,286.304C1357.14,275.7 1348.53,267.091 1337.92,267.091L543.995,267.091C533.391,267.091 524.782,275.7 524.782,286.304C524.782,296.908 533.391,305.517 543.995,305.517L1337.92,305.517C1348.53,305.517 1357.14,296.908 1357.14,286.304Z" style="fill:white;"/></g><g transform="matrix(0.385494,-2.62367e-19,-5.24733e-19,0.385494,910.984,-48.4089)"><g transform="matrix(0.900109,0,0,0.801474,59.7802,80.9498)"><rect x="506.059" y="487.605" width="80.05" height="407.837" style="fill:rgb(187,227,248);"/></g><g transform="matrix(0.900109,0,0,0.555165,164.727,301.505)"><rect x="506.059" y="487.605" width="80.05" height="407.837" style="fill:rgb(187,227,248);"/></g><g transform="matrix(0.900109,0,0,0.353623,269.674,481.975)"><rect x="506.059" y="487.605" width="80.05" height="407.837" style="fill:rgb(187,227,248);"/></g></g><g transform="matrix(0.196904,-1.34013e-19,-2.68025e-19,0.196904,1008.45,118.563)"><circle cx="584.195" cy="1024.83" r="74.953" style="fill:white;"/></g><g transform="matrix(0.196904,-1.34013e-19,-2.68025e-19,0.196904,1008.97,177.782)"><circle cx="584.195" cy="1024.83" r="74.953" style="fill:white;"/></g></g><g transform="matrix(1,0,0,1,-2.84164,2.97794)"><rect x="2224.62" y="690.598" width="81.348" height="4.702" style="fill:white;"/></g><g transform="matrix(1,0,0,1,-2.84164,14.0151)"><rect x="2224.62" y="690.598" width="81.348" height="4.702" style="fill:white;"/></g><path d="M2344.66,670.766L2342.93,719.997L2387.79,716.319L2344.66,670.766Z" style="fill:rgb(186,228,255);"/><path d="M2344.66,670.766L2343.54,715.482L2387.79,716.319L2344.66,670.766Z" style="fill:rgb(232,246,255);"/></g><g transform="matrix(4.28837,-2.00548,3.0476,3.53122,-11171,3903.28)"><g transform="matrix(1,0,0,1,-1.90229,1.37203)"><path d="M2387,715.136L2344.66,670.766L2201.57,670.766L2201.57,933.178L2387,933.178L2387,715.136Z" style="fill-opacity:0.1;"/></g><path d="M2387,715.136L2344.66,670.766L2201.57,670.766L2201.57,933.178L2387,933.178L2387,715.136Z" style="fill:rgb(232,246,255);"/><g transform="matrix(-0.682565,0.00394843,0.00602802,0.699685,3113.2,633.752)"><g transform="matrix(0.239375,-1.62918e-19,-3.25837e-19,0.239375,977.479,223.363)"><path d="M1357.14,286.304C1357.14,275.7 1348.53,267.091 1337.92,267.091L543.995,267.091C533.391,267.091 524.782,275.7 524.782,286.304C524.782,296.908 533.391,305.517 543.995,305.517L1337.92,305.517C1348.53,305.517 1357.14,296.908 1357.14,286.304Z" style="fill:white;"/></g><g transform="matrix(0.239375,-1.62918e-19,-3.25837e-19,0.239375,978.002,282.582)"><path d="M1357.14,286.304C1357.14,275.7 1348.53,267.091 1337.92,267.091L543.995,267.091C533.391,267.091 524.782,275.7 524.782,286.304C524.782,296.908 533.391,305.517 543.995,305.517L1337.92,305.517C1348.53,305.517 1357.14,296.908 1357.14,286.304Z" style="fill:white;"/></g><g transform="matrix(0.385494,-2.62367e-19,-5.24733e-19,0.385494,910.984,-48.4089)"><g transform="matrix(0.900109,0,0,0.801474,59.7802,80.9498)"><rect x="506.059" y="487.605" width="80.05" height="407.837" style="fill:rgb(187,227,248);"/></g><g transform="matrix(0.900109,0,0,0.555165,164.727,301.505)"><rect x="506.059" y="487.605" width="80.05" height="407.837" style="fill:rgb(187,227,248);"/></g><g transform="matrix(0.900109,0,0,0.353623,269.674,481.975)"><rect x="506.059" y="487.605" width="80.05" height="407.837" style="fill:rgb(187,227,248);"/></g><g transform="matrix(0.900109,0,0,0.58284,374.621,276.724)"><rect x="506.059" y="487.605" width="80.05" height="407.837" style="fill:rgb(187,227,248);"/></g><g transform="matrix(0.900109,0,0,0.304774,479.568,525.716)"><rect x="506.059" y="487.605" width="80.05" height="407.837" style="fill:rgb(187,227,248);"/></g></g><g transform="matrix(0.196904,-1.34013e-19,-2.68025e-19,0.196904,1008.45,118.563)"><circle cx="584.195" cy="1024.83" r="74.953" style="fill:white;"/></g><g transform="matrix(0.196904,-1.34013e-19,-2.68025e-19,0.196904,1008.97,177.782)"><circle cx="584.195" cy="1024.83" r="74.953" style="fill:white;"/></g><g transform="matrix(0.196904,-1.34013e-19,-2.68025e-19,0.196904,1048.92,118.563)"><circle cx="584.195" cy="1024.83" r="74.953" style="fill:white;"/></g><g transform="matrix(0.196904,-1.34013e-19,-2.68025e-19,0.196904,1049.45,177.782)"><circle cx="584.195" cy="1024.83" r="74.953" style="fill:white;"/></g><g transform="matrix(0.196904,-1.34013e-19,-2.68025e-19,0.196904,1089.4,118.563)"><circle cx="584.195" cy="1024.83" r="74.953" style="fill:white;"/></g><g transform="matrix(0.196904,-1.34013e-19,-2.68025e-19,0.196904,1089.92,177.782)"><circle cx="584.195" cy="1024.83" r="74.953" style="fill:white;"/></g><g transform="matrix(0.196904,-1.34013e-19,-2.68025e-19,0.196904,1130.92,118.563)"><circle cx="584.195" cy="1024.83" r="74.953" style="fill:white;"/></g><g transform="matrix(0.196904,-1.34013e-19,-2.68025e-19,0.196904,1131.44,177.782)"><circle cx="584.195" cy="1024.83" r="74.953" style="fill:white;"/></g><g transform="matrix(0.196904,-1.34013e-19,-2.68025e-19,0.196904,1172.44,118.563)"><circle cx="584.195" cy="1024.83" r="74.953" style="fill:white;"/></g></g><g transform="matrix(1,0,0,1,-2.84164,2.97794)"><rect x="2224.62" y="690.598" width="81.348" height="4.702" style="fill:white;"/></g><g transform="matrix(1,0,0,1,-2.84164,14.0151)"><rect x="2224.62" y="690.598" width="81.348" height="4.702" style="fill:white;"/></g><path d="M2344.66,670.766L2342.93,719.997L2387.79,716.319L2344.66,670.766Z" style="fill:rgb(186,228,255);"/><path d="M2344.66,670.766L2343.54,715.482L2387.79,716.319L2344.66,670.766Z" style="fill:rgb(232,246,255);"/></g><g transform="matrix(1.0915,0,0,1.0915,-146.588,-18.9569)"><g><path d="M2016.18,922.925C2059.15,936.98 2506.46,926.952 2567.65,925.811C2628.85,924.671 2740.4,924.505 2776.71,952.712C2813.02,980.919 2913.19,1184.47 2925.44,1207.3C2937.69,1230.13 2937.53,1245.7 2936.91,1251.74C2936.29,1257.78 2933.97,1263.19 2933.97,1263.19C2933.97,1263.19 2964.81,1314.96 2975.79,1333.35C2986.76,1351.74 2984.12,1359.01 2983.62,1368.27C2983.13,1377.54 2979,1396.01 2976.78,1400.07C2974.57,1404.13 2971.14,1405.15 2971.14,1405.15C2971.14,1405.15 3008.8,1441.88 3012.46,1453.18C3016.12,1464.48 3011.53,1484.5 3007.97,1497.46C3004.41,1510.41 2977.34,1543.4 2970.69,1550.02C2964.04,1556.64 2951.82,1556.76 2951.82,1556.76C2951.82,1556.76 2969.01,1589.65 2973.97,1597.91C2978.94,1606.17 2959.61,1682.26 2953.38,1695.93C2947.16,1709.61 2926.31,1728.58 2926.31,1728.58C2926.31,1728.58 2958.2,1759.77 2964.62,1784.45C2971.05,1809.12 2972.65,1823.65 2957.98,1835.69C2943.3,1847.73 2866.59,1823.74 2838.81,1817.06C2811.03,1810.38 2723.08,1800.59 2697.43,1796.26C2671.79,1791.93 2492.14,1766.26 2439.9,1753C2387.66,1739.73 2213.94,1586.71 2160.51,1544.87C2107.07,1503.02 1949.9,1358.35 1917.98,1343.97C1886.05,1329.59 1641.3,1240.34 1241.82,1134.46C842.349,1028.58 501.027,899.218 501.027,899.218C501.027,899.218 531.965,607.974 580.987,501.171C630.01,394.368 797.176,226.447 797.176,226.447C797.176,226.447 1173.13,384.734 1359.49,502.372C1545.85,620.011 1986.47,913.203 2016.18,922.925Z" style="fill:rgb(142,187,229);"/><path d="M747.956,278.359C776.687,247.029 797.176,226.447 797.176,226.447C797.176,226.447 1173.13,384.734 1359.49,502.372C1545.85,620.011 1986.47,913.203 2016.18,922.925C2059.15,936.98 2506.46,926.952 2567.65,925.811C2628.85,924.671 2740.4,924.505 2776.71,952.712C2804.13,974.014 2867.97,1095.32 2902.86,1163.26C2831.91,1083.05 2761.45,977.212 2744.5,975.829C2714.16,973.352 2698.47,1013.87 2676.36,1010.64C2667.42,1009.34 2614.99,982.176 2591.61,978.091C2543.15,969.623 2487.33,984.944 2438.72,984.935C2362.84,984.922 2290.05,967.696 2215.09,962.117C2145.37,956.927 2075.32,961.263 2007.88,939.622C1847.17,888.052 1656.06,767.06 1518.04,675.442C1402.79,598.929 1281.03,539.552 1156.68,483.29C1016.08,419.674 880.01,353.988 747.956,278.359Z" style="fill:url(#_Linear2);"/><path d="M2672.55,1046.29C2662.85,1072.62 2640.18,1096.41 2635.35,1123.66C2632.14,1141.73 2641.7,1182.13 2637.78,1192.95C2629.11,1216.93 2607.36,1233.04 2599.32,1257.41C2591.49,1281.15 2603.89,1307.2 2592.58,1330.79C2579.15,1358.78 2481.58,1436.94 2528.92,1468.24C2570.16,1495.51 2571.2,1424.45 2578.47,1401.61C2583.17,1386.84 2593.82,1372.08 2601.31,1358.62C2613.17,1337.31 2648.83,1351.28 2659.74,1328.02C2671.73,1302.45 2654.9,1238.25 2663.6,1203.62C2671.25,1173.19 2714.85,1177.65 2718.92,1135.15C2722.41,1098.66 2745.55,958.695 2672.55,1046.29Z" style="fill:url(#_Linear3);"/><g transform="matrix(0.99929,-0.0376853,0.0376853,0.99929,-43.1556,109.231)"><path d="M2778.14,1053.15C2778.58,1066.23 2783.1,1077.04 2787.43,1089.31C2792.2,1102.85 2795.97,1116.71 2803.03,1129.33C2812.6,1146.44 2825.69,1161.18 2835.82,1177.91C2851.59,1203.93 2868.85,1231.43 2888.1,1255.06C2898.59,1267.95 2908.67,1280.98 2919.43,1293.68C2932.25,1308.83 2944.87,1323.91 2958.91,1337.96C2960.65,1339.69 2969.73,1349.64 2972.95,1348.37C2975.83,1347.23 2971.91,1336.04 2971.32,1334.3C2965.81,1318.12 2962.1,1301.98 2951.56,1288.02C2911.02,1234.36 2867.82,1180.8 2833.5,1122.89C2821.72,1103.01 2809.34,1082.55 2794.62,1064.71C2790.07,1059.21 2786.04,1050.52 2777.78,1050.25" style="fill:url(#_Linear4);"/></g><path d="M2773.98,1249.62C2782.44,1284.61 2811.17,1310.92 2835.61,1335.14C2868.92,1368.16 2904.96,1399.15 2942.66,1427.04C2959.41,1439.43 2973.95,1452.32 2992.53,1461.93C2995.85,1463.65 3007.89,1468.85 3010.39,1464.07C3013.63,1457.9 3008.7,1449.94 3005.79,1444.62C2996.26,1427.15 2975.63,1414.16 2961.69,1400.23C2906.21,1344.77 2844.85,1284.29 2776.23,1245.34" style="fill:url(#_Linear5);"/><path d="M2771.92,1440.2C2780.35,1476.24 2818.38,1502.14 2847.25,1521.52C2868.59,1535.83 2888.13,1552.17 2904.19,1571.98C2913.23,1583.13 2926,1601.58 2940.13,1606.34C2946.09,1608.34 2955.94,1610.78 2958.59,1603.04C2966.17,1580.93 2945.68,1559.61 2931.44,1546.03C2901.12,1517.1 2866.66,1487.55 2831.07,1465.32C2814.32,1454.86 2796.31,1435 2775.48,1434.08" style="fill:url(#_Linear6);"/><path d="M523.095,737.325C575.789,767.946 643.786,784.162 690.019,804.405C741.863,827.104 792.689,854.177 842.898,880.355C1082.26,1005.16 1341.72,1063.51 1596.29,1139.95C1639.83,1153.02 1692.38,1182.76 1739.17,1181.44C1779.41,1180.31 1783.94,1082.35 1831.19,1087.91C1843.12,1089.32 1855.56,1169.19 1932.99,1156.17C2026.29,1140.49 2006.51,981.46 2113.11,987.888C2175.47,991.649 2039.04,1220.1 2031.29,1306.95C2027.71,1347.19 2203.98,1452.04 2241.21,1478.73C2321.14,1536.06 2422.84,1582.09 2514.69,1533.41C2521.28,1529.91 2506.26,1522.79 2504.3,1521.98C2492.6,1517.12 2446.65,1483.78 2483.14,1481.53C2504.48,1480.21 2513.79,1495.71 2532.32,1501.34C2608.03,1524.35 2735.81,1539.47 2798.54,1566.04C2838.73,1583.06 2863.94,1628.42 2906.23,1640.42C2951.26,1653.21 2955.04,1624.39 2973.22,1596.63C2973.49,1597.11 2973.75,1597.54 2973.97,1597.91C2978.94,1606.17 2959.61,1682.26 2953.38,1695.93C2947.16,1709.61 2926.31,1728.58 2926.31,1728.58C2926.31,1728.58 2958.2,1759.77 2964.62,1784.45C2971.05,1809.12 2972.65,1823.65 2957.98,1835.69C2943.3,1847.73 2866.59,1823.74 2838.81,1817.06C2811.03,1810.38 2723.08,1800.59 2697.43,1796.26C2671.79,1791.93 2492.14,1766.26 2439.9,1753C2387.66,1739.73 2213.94,1586.71 2160.51,1544.87C2107.07,1503.02 1949.9,1358.35 1917.98,1343.97C1886.05,1329.59 1641.3,1240.34 1241.82,1134.46C842.349,1028.58 501.027,899.218 501.027,899.218C501.027,899.218 508.935,824.767 523.095,737.325Z" style="fill:rgb(108,167,221);"/><path d="M1912.74,1341.73C1907.86,1313.4 1905.85,1284.51 1914.71,1256.79C1916.23,1252.03 1918.02,1246.98 1920.74,1242.75C1939.51,1213.44 1967.13,1263.02 1988.58,1233.92C2001.88,1215.87 2011.22,1195.09 2021.66,1175.37C2031.9,1156.03 2042.06,1136.38 2051.68,1116.74C2060.38,1099 2067.26,1074.59 2087.3,1066.28L2097.53,1077.69C2094.23,1080.85 2093.8,1089.9 2092.4,1094.09C2088.25,1106.49 2082.67,1118.3 2078.13,1130.55C2061.05,1176.65 2046.53,1223.18 2025.92,1267.93C2020.86,1278.94 2013.64,1288.77 2006.82,1298.65C2003.11,1304.04 1997.07,1312.2 1990.66,1314.61C1980.24,1318.52 1959.4,1312.49 1952.86,1321.39C1945.15,1331.87 1942.37,1345.82 1941.08,1359.24C1930.92,1351.59 1922.94,1346.21 1917.98,1343.97C1916.62,1343.36 1914.87,1342.61 1912.74,1341.73Z" style="fill:rgb(69,143,212);"/><path d="M2926.31,1728.58C2926.31,1728.58 2889.49,1696.21 2841.14,1677.74C2792.8,1659.27 2738.21,1640.43 2683.83,1628.69C2629.45,1616.94 2599.65,1615.75 2571.97,1609.37C2544.28,1602.99 2546.01,1565.49 2581.01,1574.28C2616,1583.07 2676.31,1617.28 2716.87,1626.57C2757.44,1635.86 2769.59,1630.24 2782.43,1627.82C2795.28,1625.4 2763.3,1640.87 2785.27,1649.32C2807.24,1657.78 2857.2,1678.07 2896.22,1689.34C2920.33,1696.3 2941.23,1697.92 2954.88,1692.17C2954.32,1693.7 2953.82,1694.97 2953.38,1695.93C2947.55,1708.75 2928.86,1726.23 2926.54,1728.36L2926.31,1728.58Z" style="fill:rgb(69,143,212);"/><path d="M2814.88,1810.5C2810.58,1801.3 2809.61,1775.27 2818.03,1765.14C2826.45,1755 2847.18,1753.37 2847.18,1753.37C2847.18,1753.37 2884.93,1761.96 2920.5,1776.2C2956.07,1790.45 2978.47,1809.21 2973.23,1823.24C2967.98,1837.27 2955.82,1851.46 2913.36,1837.88C2870.89,1824.31 2819.17,1819.69 2814.88,1810.5Z" style="fill:rgb(142,187,229);"/><path d="M2816.79,1812.62C2815.87,1811.94 2815.22,1811.23 2814.88,1810.5C2810.58,1801.3 2809.61,1775.27 2818.03,1765.14C2826.45,1755 2847.18,1753.37 2847.18,1753.37C2847.18,1753.37 2884.93,1761.96 2920.5,1776.2C2956.07,1790.45 2978.47,1809.21 2973.23,1823.24C2971.83,1826.98 2969.94,1830.72 2967.12,1833.96C2965.84,1829.05 2965.86,1822.95 2964.96,1819.94C2962.87,1812.88 2956.18,1807.72 2950.85,1803.22C2945.82,1798.98 2939.36,1796.93 2933.85,1793.47C2910.85,1779.05 2886.71,1764.24 2858.77,1762.67C2849.24,1762.14 2833.75,1758.03 2826.33,1767.48C2817.15,1779.15 2818.81,1798.05 2816.79,1812.62Z" style="fill:rgb(172,205,236);"/><path d="M2952.86,1558.76L2945.76,1557.33C2945.76,1557.33 2879.5,1501.04 2860.26,1484.75C2841.02,1468.47 2762.35,1410.89 2737.3,1402.61C2712.25,1394.32 2696,1394.77 2708.48,1380.59C2720.95,1366.41 2782.49,1375.74 2796.3,1400.94C2810.11,1426.14 2855.91,1473.34 2879.54,1488.02C2903.16,1502.69 2963.45,1533.07 2975.78,1526.13C2982.41,1522.4 2992.95,1517.36 3001.73,1509.95C2992.33,1525.04 2975.7,1545.03 2970.69,1550.02C2964.04,1556.64 2951.82,1556.76 2951.82,1556.76C2951.82,1556.76 2952.2,1557.49 2952.86,1558.76ZM2972.5,1404.53C2962.65,1394.55 2900.53,1331.82 2872.38,1306.7C2841.76,1279.38 2801.04,1257.84 2779.85,1234.42C2758.65,1211.01 2767.63,1206.34 2776.21,1208.34C2784.79,1210.34 2826.98,1246.88 2842.92,1267.48C2858.85,1288.09 2918.01,1345.44 2940.37,1357.82C2960.85,1369.15 2980.53,1384.29 2982.94,1349.01C2985.19,1357.02 2983.95,1362.22 2983.62,1368.27C2983.13,1377.54 2979,1396.01 2976.78,1400.07C2975.46,1402.5 2973.7,1403.84 2972.5,1404.53ZM2936.03,1256.76L2932.84,1255.5C2932.84,1255.5 2872.36,1165.39 2851.7,1142.31C2831.05,1119.23 2807.63,1086.32 2797.69,1066.78C2787.76,1047.24 2781.12,1031.53 2794.01,1037.11C2806.9,1042.68 2859.7,1141.02 2872.94,1159.74C2882.47,1173.22 2910.62,1204.02 2927.77,1211.85C2937.67,1232.2 2937.48,1246.12 2936.91,1251.74C2936.73,1253.51 2936.4,1255.22 2936.03,1256.76Z" style="fill:rgb(108,167,221);"/></g><g><path d="M513.072,105.981C513.072,105.981 500.05,91.839 474.327,79.934C459.847,73.233 435.001,97.547 419.313,92.895C407.024,89.251 402.812,56.119 397.218,54.44C371.8,46.809 204.733,139.582 204.733,139.582L147.557,586.688L132.529,794.657L283.846,850.922L513.072,105.981Z" style="fill:rgb(197,167,42);"/><path d="M336.922,308.169C363,236.427 436.972,133.212 472.85,109.873C508.728,86.534 499.51,79.253 540.015,98.744C580.519,118.234 620.265,149.636 691.296,148.386C762.327,147.137 784.45,198.787 800.866,205.361C817.282,211.936 818.902,233.073 818.902,233.073C818.902,233.073 802.009,223.662 783.551,246.091C765.094,268.519 588.501,434.805 561.112,568.276C533.722,701.748 510.882,878.424 511.736,887.649C512.589,896.874 524.63,906.829 524.63,906.829C524.63,906.829 522.734,925.912 496.332,932.509C469.93,939.107 420.041,898.051 406.353,898.818C392.665,899.586 303.707,919.863 287.634,906.861C271.56,893.859 238.141,864.376 232.851,812.651C227.561,760.926 230.913,599.803 336.922,308.169Z" style="fill:rgb(235,208,99);"/><path d="M472.633,110.016C464.012,146.514 432.73,216.608 365.427,337.918C260.682,526.718 277.129,631.875 302.483,642.589C311.323,646.325 319.328,651.134 329.166,645.922C332.145,644.344 330.618,637.222 329.807,634.564C320.411,603.74 355.295,607.006 364.167,577.049C388.567,494.664 440.094,422.301 467.087,341.463C473.589,321.989 485.499,300.466 487.364,279.908C488.306,269.523 478.813,252.483 483.969,243.139C494.422,224.193 530.424,208.704 550.966,214.765C592.098,226.901 540.034,287.301 528.883,303.783C519.558,317.566 505.406,328.043 496.819,342.32C445.39,427.82 388.641,517.896 385.173,620.942C384.62,637.384 364.188,738.509 381.757,738.713C387.13,738.776 402.086,724.995 406.945,721.725C462.098,684.598 472.686,640.045 486.76,576.929C507.428,484.238 575.456,338.281 650.532,279.752C669.682,264.823 692.139,254.623 713.26,242.772C737.238,229.318 769.318,210.225 800.655,205.274C800.725,205.304 800.796,205.333 800.866,205.361C817.282,211.936 818.902,233.073 818.902,233.073C818.902,233.073 802.009,223.662 783.551,246.091C765.094,268.519 588.501,434.805 561.112,568.276C533.722,701.748 510.882,878.424 511.736,887.649C512.589,896.874 524.63,906.829 524.63,906.829C524.63,906.829 522.734,925.912 496.332,932.509C469.93,939.107 420.041,898.051 406.353,898.818C392.665,899.586 303.707,919.863 287.634,906.861C271.56,893.859 238.141,864.376 232.851,812.651C227.561,760.926 230.913,599.803 336.922,308.169C362.948,236.571 436.677,133.624 472.633,110.016Z" style="fill:rgb(197,167,42);"/></g></g><g transform="matrix(6.65072,2.94372,-2.79657,6.31826,-16844.4,-12469.5)"><g transform="matrix(1,0,0,1,-279.53,255.395)"><path d="M3425.23,413.659C3425.23,412.619 3424.53,411.704 3424.05,410.85C3423.48,409.845 3421.24,405.66 3420.38,405.66L3379.01,410.217C3377.11,410.217 3375.57,411.76 3375.57,413.659L3372.27,466.882C3372.27,467.572 3375.77,472.617 3376.12,473.156C3376.74,474.1 3377.8,474.726 3379.01,474.726L3421.79,474.726C3423.69,474.726 3425.23,473.183 3425.23,471.284L3425.23,413.659Z" style="fill:rgb(160,89,117);"/></g><g transform="matrix(0.137233,-0.0639376,0.0607415,0.144454,2792.26,669.638)"><path d="M1748.6,1174.06L1932.21,1249.73C1932.21,1249.73 1912.24,1287.04 1917.09,1348.24L1741.32,1282.66C1741.32,1282.66 1713.29,1212.93 1748.6,1174.06Z" style="fill:rgb(160,89,117);"/></g><g transform="matrix(0.137233,-0.0639376,0.0607415,0.144454,2792.26,669.638)"><path d="M1932.21,1249.73L1936.16,1256.93C1936.16,1256.93 1913.93,1287.3 1924.13,1347.82L1916.42,1348.6C1916.42,1348.6 1905.55,1287.16 1932.21,1249.73Z" style="fill:rgb(118,66,86);"/></g><g transform="matrix(0.0748301,-0.0146868,0.0135611,0.0765576,2968.7,623.388)"><path d="M2151.65,1121.47C2151.11,1121.52 2150.57,1121.55 2150.02,1121.55C2138.26,1121.55 2128.71,1109.72 2128.71,1095.16C2128.71,1080.59 2138.26,1068.77 2150.02,1068.77C2152.84,1068.77 2155.54,1069.45 2158.01,1070.68C2147,1071.72 2138.32,1083.11 2138.32,1097C2138.32,1108.07 2143.84,1117.56 2151.65,1121.47Z" style="fill:rgb(236,97,152);"/></g><g transform="matrix(0.0748301,-0.0146868,0.0135611,0.0765576,2968.67,630.484)"><path d="M2151.65,1121.47C2151.11,1121.52 2150.57,1121.55 2150.02,1121.55C2138.26,1121.55 2128.71,1109.72 2128.71,1095.16C2128.71,1080.59 2138.26,1068.77 2150.02,1068.77C2152.84,1068.77 2155.54,1069.45 2158.01,1070.68C2147,1071.72 2138.32,1083.11 2138.32,1097C2138.32,1108.07 2143.84,1117.56 2151.65,1121.47Z" style="fill:rgb(236,97,152);"/></g><g transform="matrix(1,0,0,1,-282.978,250.079)"><path d="M3425.23,413.659C3425.23,411.76 3423.69,410.217 3421.79,410.217L3379.01,410.217C3377.11,410.217 3375.57,411.76 3375.57,413.659L3375.57,471.284C3375.57,473.183 3377.11,474.726 3379.01,474.726L3421.79,474.726C3423.69,474.726 3425.23,473.183 3425.23,471.284L3425.23,413.659Z" style="fill:rgb(236,97,152);"/></g><g transform="matrix(0.899126,0,0,0.899126,60.0338,294.713)"><path d="M3425.23,413.659C3425.23,411.76 3423.69,410.217 3421.79,410.217L3379.01,410.217C3377.11,410.217 3375.57,411.76 3375.57,413.659L3375.57,471.284C3375.57,473.183 3377.11,474.726 3379.01,474.726L3421.79,474.726C3423.69,474.726 3425.23,473.183 3425.23,471.284L3425.23,413.659Z" style="fill:rgb(246,178,205);"/></g><g transform="matrix(0.851939,0,0,0.851939,220.49,315.592)"><path d="M3425.23,413.659C3425.23,411.76 3423.69,410.217 3421.79,410.217L3379.01,410.217C3377.11,410.217 3375.57,411.76 3375.57,413.659L3375.57,471.284C3375.57,473.183 3377.11,474.726 3379.01,474.726L3421.79,474.726C3423.69,474.726 3425.23,473.183 3425.23,471.284L3425.23,413.659Z" style="fill:rgb(253,239,244);"/></g><g transform="matrix(0.0326683,-0.000562711,0.000534581,0.0343873,3055.8,667.538)"><path d="M1440.76,551.975C1470.93,551.975 1494.51,562.739 1511.5,584.266C1531.76,609.759 1541.88,652.035 1541.88,711.094C1541.88,770.011 1531.69,812.358 1511.29,838.134C1494.44,859.378 1470.93,870 1440.76,870C1410.45,870 1386.02,858.351 1367.47,835.054C1348.91,811.756 1339.64,770.223 1339.64,710.457C1339.64,651.823 1349.84,609.618 1370.23,583.841C1387.08,562.597 1410.59,551.975 1440.76,551.975ZM1440.76,601.474C1433.54,601.474 1427.09,603.775 1421.43,608.378C1415.76,612.981 1411.37,621.231 1408.26,633.128C1404.15,648.565 1402.1,674.554 1402.1,711.094C1402.1,747.634 1403.94,772.737 1407.62,786.404C1411.3,800.072 1415.94,809.171 1421.54,813.703C1427.13,818.235 1433.54,820.501 1440.76,820.501C1447.98,820.501 1454.43,818.2 1460.09,813.597C1465.76,808.994 1470.15,800.744 1473.27,788.848C1477.37,773.552 1479.42,747.634 1479.42,711.094C1479.42,674.554 1477.58,649.45 1473.9,635.783C1470.22,622.116 1465.58,612.981 1459.99,608.378C1454.39,603.775 1447.98,601.474 1440.76,601.474Z" style="fill:rgb(45,69,132);fill-rule:nonzero;"/><path d="M1583.1,792.672L1640.88,786.298C1642.3,798.053 1645.98,806.763 1651.93,812.429C1657.88,818.094 1665.74,820.926 1675.51,820.926C1687.83,820.926 1698.31,815.261 1706.95,803.931C1715.59,792.601 1721.11,769.09 1723.52,733.4C1708.51,750.82 1689.74,759.531 1667.22,759.531C1642.72,759.531 1621.58,750.077 1603.81,731.17C1586.04,712.262 1577.15,687.654 1577.15,657.346C1577.15,625.763 1586.53,600.306 1605.3,580.973C1624.06,561.641 1647.96,551.975 1677,551.975C1708.58,551.975 1734.5,564.19 1754.75,588.621C1775,613.052 1785.13,653.239 1785.13,709.182C1785.13,766.116 1774.58,807.188 1753.48,832.398C1732.37,857.608 1704.9,870.213 1671.05,870.213C1646.69,870.213 1627,863.733 1611.99,850.774C1596.98,837.815 1587.35,818.448 1583.1,792.672ZM1718.21,662.232C1718.21,642.971 1713.78,628.029 1704.93,617.407C1696.08,606.785 1685.85,601.474 1674.23,601.474C1663.19,601.474 1654.02,605.829 1646.72,614.539C1639.43,623.249 1635.78,637.518 1635.78,657.346C1635.78,677.457 1639.75,692.222 1647.68,701.64C1655.61,711.058 1665.52,715.768 1677.42,715.768C1688.89,715.768 1698.56,711.236 1706.42,702.171C1714.28,693.107 1718.21,679.794 1718.21,662.232Z" style="fill:rgb(45,69,132);fill-rule:nonzero;"/><path d="M1848.01,698.772L1848.01,639.076L1907.71,639.076L1907.71,698.772L1848.01,698.772ZM1848.01,864.689L1848.01,804.993L1907.71,804.993L1907.71,864.689L1848.01,864.689Z" style="fill:rgb(45,69,132);fill-rule:nonzero;"/><path d="M1966.55,782.049L2024.34,775.039C2026.18,789.768 2031.14,801.028 2039.21,808.817C2047.28,816.607 2057.05,820.501 2068.53,820.501C2080.85,820.501 2091.22,815.828 2099.65,806.48C2108.08,797.133 2112.29,784.528 2112.29,768.666C2112.29,753.653 2108.25,741.756 2100.18,732.975C2092.11,724.194 2082.26,719.804 2070.65,719.804C2063,719.804 2053.87,721.291 2043.25,724.265L2049.83,675.616C2065.98,676.041 2078.3,672.536 2086.8,665.1C2095.29,657.665 2099.54,647.786 2099.54,635.465C2099.54,624.984 2096.43,616.628 2090.2,610.396C2083.96,604.165 2075.68,601.049 2065.34,601.049C2055.14,601.049 2046.43,604.59 2039.21,611.671C2031.99,618.753 2027.6,629.091 2026.04,642.688L1971.02,633.34C1974.84,614.504 1980.61,599.456 1988.33,588.196C1996.05,576.937 2006.81,568.085 2020.62,561.641C2034.43,555.197 2049.9,551.975 2067.04,551.975C2096.36,551.975 2119.87,561.322 2137.57,580.017C2152.16,595.313 2159.45,612.592 2159.45,631.853C2159.45,659.187 2144.51,680.998 2114.63,697.285C2132.47,701.109 2146.74,709.678 2157.43,722.991C2168.13,736.304 2173.47,752.378 2173.47,771.215C2173.47,798.549 2163.49,821.847 2143.52,841.108C2123.55,860.37 2098.69,870 2068.95,870C2040.77,870 2017.4,861.892 1998.85,845.676C1980.29,829.459 1969.53,808.251 1966.55,782.049Z" style="fill:rgb(45,69,132);fill-rule:nonzero;"/><path d="M2210.65,612.946L2210.65,557.499L2414.81,557.499L2414.81,600.837C2397.95,617.407 2380.82,641.201 2363.39,672.217C2345.97,703.234 2332.7,736.197 2323.56,771.109C2314.43,806.02 2309.93,837.213 2310.07,864.689L2252.5,864.689C2253.49,821.634 2262.38,777.73 2279.16,732.975C2295.95,688.221 2318.36,648.211 2346.4,612.946L2210.65,612.946Z" style="fill:rgb(45,69,132);fill-rule:nonzero;"/></g><g transform="matrix(0.0155595,-0.000268013,0.000254615,0.0163783,3104.72,669.462)"><path d="M1397.21,707.907L1343.04,698.135C1349.13,676.324 1359.61,660.179 1374.48,649.698C1389.35,639.218 1411.44,633.978 1440.76,633.978C1467.39,633.978 1487.21,637.129 1500.25,643.431C1513.27,649.734 1522.44,657.736 1527.76,667.437C1533.07,677.139 1535.72,694.948 1535.72,720.866L1535.09,790.547C1535.09,810.375 1536.04,824.998 1537.95,834.416C1539.87,843.835 1543.44,853.926 1548.68,864.689L1489.62,864.689C1488.07,860.724 1486.15,854.846 1483.89,847.057C1482.89,843.516 1482.19,841.179 1481.76,840.046C1471.57,849.96 1460.66,857.395 1449.05,862.352C1437.43,867.309 1425.04,869.788 1411.87,869.788C1388.64,869.788 1370.34,863.485 1356.95,850.881C1343.57,838.276 1336.88,822.343 1336.88,803.081C1336.88,790.335 1339.92,778.969 1346.01,768.984C1352.1,758.999 1360.63,751.352 1371.61,746.041C1382.59,740.73 1398.41,736.091 1419.09,732.126C1446.99,726.885 1466.33,721.999 1477.09,717.467L1477.09,711.519C1477.09,700.047 1474.26,691.868 1468.59,686.982C1462.93,682.096 1452.23,679.653 1436.51,679.653C1425.89,679.653 1417.61,681.742 1411.66,685.92C1405.71,690.098 1400.89,697.427 1397.21,707.907ZM1477.09,756.344C1469.44,758.893 1457.33,761.938 1440.76,765.479C1424.19,769.02 1413.36,772.49 1408.26,775.889C1400.47,781.412 1396.57,788.423 1396.57,796.92C1396.57,805.276 1399.69,812.499 1405.92,818.589C1412.15,824.679 1420.08,827.724 1429.71,827.724C1440.48,827.724 1450.75,824.184 1460.52,817.102C1467.74,811.72 1472.49,805.135 1474.75,797.345C1476.31,792.247 1477.09,782.545 1477.09,768.241L1477.09,756.344Z" style="fill:rgb(45,69,132);fill-rule:nonzero;"/><path d="M1590.11,639.076L1645.13,639.076L1645.13,669.88C1664.82,645.945 1688.26,633.978 1715.45,633.978C1729.89,633.978 1742.43,636.952 1753.05,642.9C1763.67,648.848 1772.38,657.842 1779.18,669.88C1789.1,657.842 1799.79,648.848 1811.26,642.9C1822.73,636.952 1834.98,633.978 1848.01,633.978C1864.58,633.978 1878.6,637.341 1890.08,644.069C1901.55,650.796 1910.12,660.674 1915.78,673.704C1919.89,683.335 1921.94,698.914 1921.94,720.441L1921.94,864.689L1862.25,864.689L1862.25,735.737C1862.25,713.36 1860.19,698.914 1856.09,692.399C1850.56,683.901 1842.06,679.653 1830.59,679.653C1822.24,679.653 1814.38,682.202 1807.01,687.3C1799.65,692.399 1794.34,699.87 1791.08,709.713C1787.82,719.556 1786.19,735.1 1786.19,756.344L1786.19,864.689L1726.5,864.689L1726.5,741.048C1726.5,719.096 1725.43,704.933 1723.31,698.56C1721.18,692.187 1717.89,687.442 1713.43,684.326C1708.97,681.21 1702.91,679.653 1695.27,679.653C1686.06,679.653 1677.78,682.131 1670.41,687.088C1663.05,692.045 1657.77,699.197 1654.58,708.545C1651.4,717.892 1649.8,733.4 1649.8,755.069L1649.8,864.689L1590.11,864.689L1590.11,639.076Z" style="fill:rgb(45,69,132);fill-rule:nonzero;"/></g><g transform="matrix(0.125413,-0.00216024,0.00205225,0.132012,2919.13,647.441)"><path d="M1556,491.081C1556,483.946 1550.21,478.154 1543.07,478.154L1454.81,478.154C1447.67,478.154 1441.88,483.946 1441.88,491.081L1441.88,516.933C1441.88,524.068 1447.67,529.86 1454.81,529.86L1543.07,529.86C1550.21,529.86 1556,524.068 1556,516.933L1556,491.081Z" style="fill:rgb(45,69,132);"/></g><g transform="matrix(0.125413,-0.00216024,0.00205225,0.132012,2919.38,649.08)"><rect x="1437.81" y="406.339" width="123.288" height="8.456" style="fill:rgb(45,69,132);"/></g><g transform="matrix(0.0356192,-0.000613539,0.000582869,0.0374934,3048.85,654.937)"><path d="M1556,491.081C1556,483.946 1550.21,478.154 1543.07,478.154L1454.81,478.154C1447.67,478.154 1441.88,483.946 1441.88,491.081L1441.88,516.933C1441.88,524.068 1447.67,529.86 1454.81,529.86L1543.07,529.86C1550.21,529.86 1556,524.068 1556,516.933L1556,491.081Z" style="fill:rgb(45,69,132);"/></g><g transform="matrix(0.125413,-0.00216024,0.00205225,0.132012,2939.11,647.097)"><path d="M1556,491.081C1556,483.946 1550.21,478.154 1543.07,478.154L1454.81,478.154C1447.67,478.154 1441.88,483.946 1441.88,491.081L1441.88,516.933C1441.88,524.068 1447.67,529.86 1454.81,529.86L1543.07,529.86C1550.21,529.86 1556,524.068 1556,516.933L1556,491.081Z" style="fill:rgb(45,69,132);"/></g><g transform="matrix(0.0356192,-0.000613539,0.000582869,0.0374934,3054.53,654.84)"><path d="M1556,491.081C1556,483.946 1550.21,478.154 1543.07,478.154L1454.81,478.154C1447.67,478.154 1441.88,483.946 1441.88,491.081L1441.88,516.933C1441.88,524.068 1447.67,529.86 1454.81,529.86L1543.07,529.86C1550.21,529.86 1556,524.068 1556,516.933L1556,491.081Z" style="fill:rgb(45,69,132);"/></g><g transform="matrix(0.137233,-0.0639376,0.0607415,0.144454,2792.26,669.638)"><path d="M1736.91,1116.98C1735.94,1113.17 1736.18,1109.08 1737.86,1105.29L1863.64,821.111C1867.79,811.742 1879.16,807.68 1889.02,812.045L2111.08,910.331C2112.62,911.016 2114.04,911.867 2115.32,912.853C2113.9,907.256 2109.88,902.257 2104.01,899.66L1881.96,801.374C1872.1,797.009 1860.72,801.071 1856.58,810.44L1730.79,1094.62C1727.3,1102.52 1730.05,1111.68 1736.91,1116.98Z" style="fill:rgb(243,150,187);"/></g><g transform="matrix(0.137233,-0.0639376,0.0607415,0.144454,2792.26,669.638)"><path d="M2072.69,852.735L2135.54,880.557C2147.12,885.68 2152.56,898.767 2147.7,909.763L2136.24,935.641C2097.88,955.449 2059.23,974.735 2021.81,996.27C1930.57,1048.77 1842.92,1105.93 1751.15,1156.98L1709.62,1138.6C1698.04,1133.48 1692.6,1120.39 1697.46,1109.4L1720.51,1057.32C1721.61,1056.65 1722.7,1055.99 1723.8,1055.31C1838.52,985.007 1954.06,916.14 2072.69,852.735ZM1974.81,809.413L2041.03,838.725C1938.66,890.969 1839,949.681 1741.43,1010.07L1782.93,916.296C1844.16,877.366 1908.72,841.257 1974.81,809.413Z" style="fill:url(#_Linear7);"/></g></g><g transform="matrix(1.0915,0,0,1.0915,-146.588,-18.9569)"><path d="M1266.17,2168.1C1266.17,2168.1 1282.77,1885 1294.55,1847.47C1306.34,1809.95 1408.72,1674.09 1426.61,1657.92C1444.5,1641.76 1506.28,1619.09 1506.28,1619.09C1506.28,1619.09 1663.24,1311 1691.52,1266.64C1719.81,1222.28 1781.12,1125.37 1825.55,1115.26C1869.98,1105.14 1881.76,1128.6 1883.28,1143.8C1884.8,1159 1872.34,1223.85 1858.43,1263.53C1847.04,1296.02 1815.25,1372.97 1810.13,1389.85C1805.01,1406.74 1769.47,1521.49 1769.47,1521.49C1769.47,1521.49 1782.73,1510.51 1789.32,1507.16C1795.91,1503.82 1861.08,1513.7 1873.96,1522.26C1886.85,1530.81 1910.81,1581.3 1914.45,1592.24C1918.1,1603.17 1911.42,1684.86 1911.42,1684.86C1911.42,1684.86 1923.43,1675.72 1931.36,1675.93C1939.29,1676.14 1987.88,1697.65 1995.96,1713.86C2004.04,1730.06 2026.41,1853.44 2026.41,1853.44C2026.41,1853.44 2033.5,1852.87 2040.33,1856.28C2047.15,1859.69 2079.51,1888.19 2092.33,1899.52C2105.15,1910.84 2114.53,2001.38 2118.38,2025.86C2122.24,2050.35 2126.07,2156.66 2126.07,2156.66L1266.17,2168.1Z" style="fill:rgb(142,187,229);"/><path d="M1857.95,1114.24C1876.26,1118.8 1882.22,1133.28 1883.28,1143.8C1884.8,1159 1872.34,1223.85 1858.43,1263.53C1847.04,1296.02 1815.25,1372.97 1810.13,1389.85C1805.01,1406.74 1769.47,1521.49 1769.47,1521.49C1769.47,1521.49 1782.73,1510.51 1789.32,1507.16C1795.91,1503.82 1861.08,1513.7 1873.96,1522.26C1886.85,1530.81 1910.81,1581.3 1914.45,1592.24C1918.1,1603.17 1911.42,1684.86 1911.42,1684.86C1911.42,1684.86 1923.43,1675.72 1931.36,1675.93C1939.29,1676.14 1987.88,1697.65 1995.96,1713.86C2004.04,1730.06 2026.41,1853.44 2026.41,1853.44C2026.41,1853.44 2033.5,1852.87 2040.33,1856.28C2047.15,1859.69 2079.51,1888.19 2092.33,1899.52C2105.15,1910.84 2114.53,2001.38 2118.38,2025.86C2118.44,2026.24 2118.5,2026.64 2118.56,2027.06C2089.73,2008.06 2094.95,1934.73 2080.61,1917.62C2054.36,1886.32 2043.16,1971.56 2007.48,1936.65C1960.99,1891.16 2014.91,1802.07 1964.18,1767.49C1957.64,1763.04 1941.58,1746.07 1932.71,1746.91C1896.55,1750.31 1870.78,1834.95 1828.38,1768.11C1797.56,1719.53 1871.59,1592.8 1817.49,1543.08C1785.42,1513.6 1699.2,1638.82 1689.23,1578.25C1676.67,1501.94 1847.79,1198.07 1857.95,1114.24Z" style="fill:url(#_Linear8);"/><path d="M1607.57,1829.47C1601.58,1826.47 1598.24,1821.46 1591.12,1820.54C1565.58,1817.26 1554.93,1840.91 1570.71,1858.77C1593.07,1884.09 1644.88,1870.7 1674.11,1880.83C1712.84,1894.25 1740.2,1925 1776.69,1941.4C1801.53,1952.57 1836.33,1961.63 1863.45,1962.47C1876.26,1962.87 1890.33,1953.11 1902.52,1957.27C1927.79,1965.88 1939.4,1992.26 1961.99,2004.87C1984.74,2017.57 2059.08,2072 2083.79,2062.89C2091.41,2060.07 2096.28,2048.98 2099.89,2042.73C2103.15,2037.1 2068.34,2029.38 2060.98,2028.43C2041.01,2025.85 2030.17,2011.51 2018.89,1995.53C1979.64,1939.94 1963.9,1967.45 1908.12,1949.87C1887.02,1943.22 1880.85,1920.5 1864.6,1908.41C1852.18,1899.17 1838.83,1890.89 1824.28,1885.18C1805.74,1877.91 1784.52,1879.09 1765.09,1877.19C1719,1872.68 1641.91,1862.47 1607.57,1829.47Z" style="fill:url(#_Linear9);"/><path d="M1820.08,1116.9C1805.05,1135.43 1780.85,1166.87 1772.55,1187.01C1760.17,1217.04 1762.22,1229.54 1770.35,1231.82C1778.48,1234.1 1808.39,1245.99 1808.39,1245.99C1808.39,1245.99 1793.38,1242.81 1772.61,1242.62C1751.84,1242.43 1709.97,1300.99 1697.47,1335.63C1684.98,1370.27 1667.17,1421.05 1684.84,1430.99C1702.51,1440.94 1726.42,1448.05 1726.42,1448.05C1726.42,1448.05 1755.13,1471.16 1698.69,1457.69C1642.25,1444.22 1630.04,1474.52 1618.89,1491.42C1607.74,1508.32 1504.08,1775.1 1500.95,1823C1497.83,1870.9 1523.75,1916.4 1527.09,1962.52C1530.43,2008.64 1529.49,2096.34 1583.75,2116.05C1612.8,2126.61 1680.49,2146.05 1737.11,2161.83L1266.17,2168.1C1266.17,2168.1 1282.77,1885 1294.55,1847.47C1306.34,1809.95 1408.72,1674.09 1426.61,1657.92C1444.5,1641.76 1506.28,1619.09 1506.28,1619.09C1506.28,1619.09 1663.24,1311 1691.52,1266.64C1718.67,1224.07 1776.22,1133.11 1820.08,1116.9Z" style="fill:rgb(108,167,221);"/><path d="M1504.06,1619.92C1489.25,1651.91 1461.38,1712.15 1447.23,1742.86C1427.38,1785.9 1417.8,1828.85 1415,1847.63C1412.2,1866.42 1401.09,1915.45 1383.18,1917.39C1365.27,1919.33 1360.36,1896.72 1373.63,1874.44C1386.89,1852.15 1396.24,1835.79 1410.66,1789.22C1425.08,1742.65 1439.29,1728.19 1452.89,1705.52C1466.49,1682.83 1417.03,1689.41 1388.85,1721.78C1360.67,1754.15 1307.83,1845.47 1302.27,1878.95C1297.42,1908.2 1280.71,2009.69 1274.7,2038.77C1280.49,1958.79 1288.21,1867.64 1294.55,1847.47C1306.34,1809.95 1408.72,1674.09 1426.61,1657.92C1442.47,1643.59 1492.85,1624.14 1504.06,1619.92Z" style="fill:rgb(69,143,212);"/><path d="M2027.69,1853.41C2030.05,1853.41 2035.26,1853.75 2040.33,1856.28C2044.93,1858.58 2061.17,1872.31 2075.18,1884.48C2074.89,1885.97 2073.97,1886.46 2072.2,1885.56C2060.39,1879.53 2045.48,1867.45 2043.01,1872.29C2040.54,1877.14 2055.54,1924.75 2057.33,1940.48C2059.13,1956.21 2080.67,1981.05 2092.13,1997.62C2103.59,2014.2 2095.75,2015.23 2064.13,2007.69C2032.52,2000.16 2043.47,1970.32 2038.35,1937.6C2034.52,1913.18 2029.83,1872.5 2027.69,1853.41ZM1912.85,1683.83C1916.28,1681.44 1925.1,1675.76 1931.36,1675.93C1935.86,1676.05 1953.49,1683.04 1969.36,1692.04C1965.6,1692.27 1961.2,1692.02 1956.43,1690.82C1941.43,1687.05 1926.83,1696.4 1927.06,1704.79C1927.29,1713.17 1920.5,1773.84 1920.59,1799.85C1920.68,1825.86 1922.91,1857.3 1927.26,1881.11C1931.6,1904.92 1921.71,1927.21 1905.7,1921.92C1889.7,1916.64 1898.25,1902.48 1899.99,1879C1901.56,1857.94 1910.93,1713.53 1912.85,1683.83ZM1769.62,1521.37C1771.1,1520.15 1783.14,1510.3 1789.32,1507.16C1794.35,1504.61 1833.42,1509.75 1857.41,1516.13C1855.99,1517.22 1854.45,1517.52 1852.92,1516.56C1845.5,1511.94 1803.71,1510 1790.83,1519.43C1777.95,1528.86 1729.41,1700.8 1723.55,1727.38C1717.69,1753.95 1719.75,1758.76 1719.6,1779.39C1719.45,1800.02 1710.36,1810.28 1694.51,1819.53C1678.67,1828.79 1675.21,1818.06 1679.84,1794.66C1684.47,1771.28 1709.55,1713.68 1720.67,1682.65C1731.78,1651.63 1746.31,1603.13 1753.32,1576.65C1760.33,1550.17 1769.47,1521.49 1769.47,1521.49L1769.62,1521.37Z" style="fill:rgb(108,167,221);"/><path d="M1820.02,1119.43C1801.7,1130.04 1772.3,1182.59 1765.78,1199.46C1759.27,1216.32 1755.18,1231 1792.67,1241.62C1830.16,1252.25 1842.68,1254.05 1851.82,1241.76C1860.92,1229.51 1884.1,1173.77 1882.2,1154.06C1880.31,1134.34 1878.24,1119.21 1860.2,1114.51C1836.31,1108.27 1825.59,1116.21 1820.02,1119.43Z" style="fill:rgb(201,223,243);"/><path d="M1839.51,1112.37C1837.02,1115.58 1834.32,1118.62 1831.68,1121.77C1824.19,1130.72 1818.53,1141.2 1812.2,1151C1806.92,1159.17 1800.95,1166.93 1796.05,1175.34C1792.69,1181.1 1790.62,1187.55 1787.79,1193.57C1784.21,1201.16 1781.57,1209.82 1783.12,1218.35C1783.89,1222.64 1790.81,1226.66 1794.22,1228.66C1800.26,1232.2 1807.22,1229.64 1813.62,1232.01C1822.15,1235.17 1827.2,1243.3 1835.63,1246.26C1838.59,1247.3 1842.57,1247.58 1846.09,1247.27C1837.02,1253.05 1823.03,1250.23 1792.67,1241.62C1755.18,1231 1759.27,1216.32 1765.78,1199.46C1772.3,1182.59 1801.7,1130.04 1820.02,1119.43C1823.63,1117.35 1829.4,1113.28 1839.51,1112.37Z" style="fill:rgb(171,205,236);"/></g><g transform="matrix(0.758,-0.254947,0.254947,0.758,-506.554,1283.39)"><ellipse cx="3555.66" cy="2522.08" rx="601.945" ry="33.763" style="fill-opacity:0.13;"/></g><g transform="matrix(0.799726,0,0,0.799726,310.991,432.108)"><path d="M2564.83,2418.69L3507.59,2090.58C3507.59,2090.58 3612.36,2075.79 3689.15,2064.95C3696.76,2063.88 3704.07,2068.32 3706.62,2075.56C3709.17,2082.8 3706.25,2090.84 3699.65,2094.77C3637.12,2131.98 3554.66,2181.05 3554.66,2181.05L2806.66,2447.89L2564.83,2418.69Z" style="fill:white;"/></g><g transform="matrix(0.799726,0,0,0.799726,206.372,495.127)"><path d="M3834.43,1991.57C3835.72,1993.06 3836.75,1994.81 3837.43,1996.76C3839.99,2004 3837.07,2012.04 3830.47,2015.97C3767.93,2053.18 3685.48,2102.24 3685.48,2102.24L2937.48,2369.09L2838.76,2357.17L3662.64,2073.65C3666.43,2053.77 3648.19,2031.07 3648.19,2031.07C3665.17,2042.48 3674.95,2064.4 3674.95,2064.4C3674.95,2064.4 3743.79,2040.26 3784.36,2021.29C3804.76,2011.75 3822.17,2000.44 3834.43,1991.57Z" style="fill:rgb(217,239,251);"/></g><g transform="matrix(1.0915,0,0,1.0915,-146.588,-18.9569)"><path d="M1968.84,379.341C1945.71,379.341 1926.95,398.078 1926.92,421.211C1926.8,513.666 1926.53,736.003 1926.39,849.143C1926.37,858.554 1932.47,866.883 1941.45,869.712C1950.42,872.542 1960.2,869.216 1965.59,861.499C1979.2,841.998 1994.34,820.315 2007.49,801.48C2028.77,771.002 2063.59,752.842 2100.76,752.842L2887.83,752.842C2898.95,752.842 2909.61,748.425 2917.47,740.563C2925.34,732.702 2929.75,722.039 2929.75,710.92C2929.75,639.051 2929.75,493.133 2929.75,421.263C2929.75,410.145 2925.34,399.482 2917.47,391.62C2909.61,383.758 2898.95,379.341 2887.83,379.341L1968.84,379.341Z" style="fill:rgb(230,245,252);"/><g transform="matrix(0.862038,0,0,0.862038,326.876,73.4422)"><path d="M2268.43,431.886C2268.33,431.886 2268.23,431.885 2268.12,431.885C2267.57,431.885 2267.03,431.892 2266.48,431.906L2268.9,431.885C2190.86,431.885 2127.51,495.241 2127.51,573.276C2127.51,651.312 2190.86,714.668 2268.9,714.668L2266.48,714.647C2267.03,714.661 2267.57,714.668 2268.12,714.668C2268.23,714.668 2268.33,714.667 2268.43,714.667C2268.59,714.667 2268.74,714.668 2268.9,714.668C2301.59,714.668 2331.7,703.55 2355.66,684.893C2356.94,684.639 2358.12,683.866 2358.84,682.658C2358.94,682.481 2359.03,682.3 2359.12,682.116C2390.29,656.236 2410.19,617.223 2410.29,573.594C2410.49,573.061 2410.6,572.483 2410.6,571.88C2410.59,571.262 2410.47,570.672 2410.26,570.131C2408.58,493.542 2345.88,431.885 2268.9,431.885C2268.74,431.885 2268.59,431.886 2268.43,431.886ZM2269.72,657.643L2268.86,705.113C2287.29,704.871 2304.26,695.614 2318.11,680.315C2320.76,677.38 2323.31,674.225 2325.72,670.865L2325.71,670.858C2322.68,669.601 2319.62,668.417 2316.54,667.318C2310.88,665.303 2305.12,663.566 2299.29,662.135C2293.26,660.656 2287.14,659.506 2280.98,658.707C2277.26,658.224 2273.53,657.872 2269.79,657.646L2269.72,657.643ZM2260.18,657.361C2238.68,657.372 2220.65,661.728 2207.47,666.417C2210.77,671.466 2214.33,676.115 2218.13,680.315C2229.94,693.357 2244.01,702.008 2259.32,704.427L2260.18,657.361ZM2334.61,674.827C2331.64,679.092 2328.5,683.067 2325.19,686.723C2321.76,690.512 2318.16,693.961 2314.4,697.043C2325.6,692.921 2336.08,687.321 2345.62,680.48C2341.91,678.438 2338.24,676.557 2334.61,674.827ZM2198.42,669.972C2192.93,672.345 2188.82,674.537 2186.28,675.996C2196.55,684.265 2208.08,691.028 2220.53,695.95C2217.25,693.153 2214.08,690.07 2211.05,686.723C2206.52,681.713 2202.29,676.103 2198.42,669.972ZM2400.7,576.709L2363.53,576.915C2362.94,611.36 2354.04,642.72 2339.81,666.722L2340.05,666.84C2342.38,667.97 2344.68,669.139 2346.97,670.349C2349.22,671.544 2351.45,672.779 2353.66,674.047L2353.79,674.121C2381.68,650.62 2399.7,615.767 2400.7,576.709ZM2172.74,577.97L2137.15,578.167C2138.46,614.102 2154.18,646.386 2178.71,669.407C2180.56,668.232 2185.68,665.145 2193.57,661.654C2181.15,638.633 2173.43,609.628 2172.74,577.97ZM2353.97,576.968L2271.18,577.426L2269.9,648.01C2288.43,649.071 2309.05,653.31 2331.08,662.743C2344.85,639.989 2353.38,609.961 2353.97,576.968ZM2260.35,647.734L2261.62,577.478L2182.29,577.917C2182.98,608.322 2190.41,636.161 2202.45,658.048C2216.71,652.766 2236.56,647.721 2260.35,647.734ZM2185.73,471.008C2157.16,494.274 2138.51,529.266 2137.14,568.617L2172.74,568.42C2173.54,533.349 2182.95,501.545 2197.82,477.539C2193.83,475.541 2189.8,473.367 2185.73,471.008ZM2206.5,481.642C2192.13,504.362 2183.1,534.792 2182.3,568.367L2261.8,567.927L2263.08,496.959C2245.71,495.215 2226.67,490.617 2206.5,481.642ZM2333.98,488.847C2318.57,494.125 2297.54,498.734 2272.62,497.646L2271.35,567.875L2353.92,567.418C2353.07,537.647 2345.75,510.389 2333.98,488.847ZM2359.39,477.43C2356.26,479.269 2350.67,482.295 2342.98,485.461C2355.06,508.089 2362.62,536.434 2363.47,567.365L2400.6,567.16C2398.99,531.864 2383.47,500.171 2359.39,477.43ZM2273.63,441.706L2272.8,488.017C2295.43,489.035 2314.64,485.093 2328.96,480.421C2325.61,475.264 2321.98,470.517 2318.11,466.238C2305.47,452.269 2290.22,443.337 2273.63,441.706ZM2264.08,441.58C2246.93,442.812 2231.15,451.855 2218.13,466.238C2216.03,468.565 2213.99,471.029 2212.04,473.626L2212.14,473.67C2214.92,474.871 2217.73,476.01 2220.57,477.079C2225.78,479.041 2231.08,480.769 2236.45,482.24C2242.02,483.764 2247.66,485.01 2253.35,485.959C2256.62,486.504 2259.9,486.948 2263.19,487.297L2263.26,487.303L2264.08,441.58ZM2314.4,449.51C2318.16,452.592 2321.76,456.041 2325.19,459.83C2329.85,464.978 2334.19,470.76 2338.14,477.093C2343.98,474.758 2348.58,472.483 2351.77,470.76C2340.66,461.765 2328.06,454.538 2314.4,449.51ZM2220.53,450.603C2211.13,454.317 2202.26,459.082 2194.05,464.753L2194.29,464.885C2197.17,466.472 2200.08,467.995 2203.02,469.45L2203.19,469.535C2205.69,466.095 2208.32,462.853 2211.05,459.83C2214.08,456.482 2217.25,453.4 2220.53,450.603Z" style="fill:rgb(112,154,210);stroke:rgb(112,154,210);stroke-width:1.06px;"/></g><g transform="matrix(0.862038,0,0,0.862038,771.078,73.4422)"><path d="M2268.43,431.886C2268.33,431.886 2268.23,431.885 2268.12,431.885C2267.57,431.885 2267.03,431.892 2266.48,431.906L2268.9,431.885C2190.86,431.885 2127.51,495.241 2127.51,573.276C2127.51,651.312 2190.86,714.668 2268.9,714.668L2266.48,714.647C2267.03,714.661 2267.57,714.668 2268.12,714.668C2268.23,714.668 2268.33,714.667 2268.43,714.667C2268.59,714.667 2268.74,714.668 2268.9,714.668C2301.59,714.668 2331.7,703.55 2355.66,684.893C2356.94,684.639 2358.12,683.866 2358.84,682.658C2358.94,682.481 2359.03,682.3 2359.12,682.116C2390.29,656.236 2410.19,617.223 2410.29,573.594C2410.49,573.061 2410.6,572.483 2410.6,571.88C2410.59,571.262 2410.47,570.672 2410.26,570.131C2408.58,493.542 2345.88,431.885 2268.9,431.885C2268.74,431.885 2268.59,431.886 2268.43,431.886ZM2269.72,657.643L2268.86,705.113C2287.29,704.871 2304.26,695.614 2318.11,680.315C2320.76,677.38 2323.31,674.225 2325.72,670.865L2325.71,670.858C2322.68,669.601 2319.62,668.417 2316.54,667.318C2310.88,665.303 2305.12,663.566 2299.29,662.135C2293.26,660.656 2287.14,659.506 2280.98,658.707C2277.26,658.224 2273.53,657.872 2269.79,657.646L2269.72,657.643ZM2260.18,657.361C2238.68,657.372 2220.65,661.728 2207.47,666.417C2210.77,671.466 2214.33,676.115 2218.13,680.315C2229.94,693.357 2244.01,702.008 2259.32,704.427L2260.18,657.361ZM2334.61,674.827C2331.64,679.092 2328.5,683.067 2325.19,686.723C2321.76,690.512 2318.16,693.961 2314.4,697.043C2325.6,692.921 2336.08,687.321 2345.62,680.48C2341.91,678.438 2338.24,676.557 2334.61,674.827ZM2198.42,669.972C2192.93,672.345 2188.82,674.537 2186.28,675.996C2196.55,684.265 2208.08,691.028 2220.53,695.95C2217.25,693.153 2214.08,690.07 2211.05,686.723C2206.52,681.713 2202.29,676.103 2198.42,669.972ZM2400.7,576.709L2363.53,576.915C2362.94,611.36 2354.04,642.72 2339.81,666.722L2340.05,666.84C2342.38,667.97 2344.68,669.139 2346.97,670.349C2349.22,671.544 2351.45,672.779 2353.66,674.047L2353.79,674.121C2381.68,650.62 2399.7,615.767 2400.7,576.709ZM2172.74,577.97L2137.15,578.167C2138.46,614.102 2154.18,646.386 2178.71,669.407C2180.56,668.232 2185.68,665.145 2193.57,661.654C2181.15,638.633 2173.43,609.628 2172.74,577.97ZM2353.97,576.968L2271.18,577.426L2269.9,648.01C2288.43,649.071 2309.05,653.31 2331.08,662.743C2344.85,639.989 2353.38,609.961 2353.97,576.968ZM2260.35,647.734L2261.62,577.478L2182.29,577.917C2182.98,608.322 2190.41,636.161 2202.45,658.048C2216.71,652.766 2236.56,647.721 2260.35,647.734ZM2185.73,471.008C2157.16,494.274 2138.51,529.266 2137.14,568.617L2172.74,568.42C2173.54,533.349 2182.95,501.545 2197.82,477.539C2193.83,475.541 2189.8,473.367 2185.73,471.008ZM2206.5,481.642C2192.13,504.362 2183.1,534.792 2182.3,568.367L2261.8,567.927L2263.08,496.959C2245.71,495.215 2226.67,490.617 2206.5,481.642ZM2333.98,488.847C2318.57,494.125 2297.54,498.734 2272.62,497.646L2271.35,567.875L2353.92,567.418C2353.07,537.647 2345.75,510.389 2333.98,488.847ZM2359.39,477.43C2356.26,479.269 2350.67,482.295 2342.98,485.461C2355.06,508.089 2362.62,536.434 2363.47,567.365L2400.6,567.16C2398.99,531.864 2383.47,500.171 2359.39,477.43ZM2273.63,441.706L2272.8,488.017C2295.43,489.035 2314.64,485.093 2328.96,480.421C2325.61,475.264 2321.98,470.517 2318.11,466.238C2305.47,452.269 2290.22,443.337 2273.63,441.706ZM2264.08,441.58C2246.93,442.812 2231.15,451.855 2218.13,466.238C2216.03,468.565 2213.99,471.029 2212.04,473.626L2212.14,473.67C2214.92,474.871 2217.73,476.01 2220.57,477.079C2225.78,479.041 2231.08,480.769 2236.45,482.24C2242.02,483.764 2247.66,485.01 2253.35,485.959C2256.62,486.504 2259.9,486.948 2263.19,487.297L2263.26,487.303L2264.08,441.58ZM2314.4,449.51C2318.16,452.592 2321.76,456.041 2325.19,459.83C2329.85,464.978 2334.19,470.76 2338.14,477.093C2343.98,474.758 2348.58,472.483 2351.77,470.76C2340.66,461.765 2328.06,454.538 2314.4,449.51ZM2220.53,450.603C2211.13,454.317 2202.26,459.082 2194.05,464.753L2194.29,464.885C2197.17,466.472 2200.08,467.995 2203.02,469.45L2203.19,469.535C2205.69,466.095 2208.32,462.853 2211.05,459.83C2214.08,456.482 2217.25,453.4 2220.53,450.603Z" style="fill:rgb(112,154,210);stroke:rgb(112,154,210);stroke-width:1.06px;"/></g><g transform="matrix(0.890043,0,0,1,223.249,0)"><path d="M2148.11,473.487C2148.11,465.696 2141.78,459.37 2133.99,459.37L2044.46,459.37C2036.66,459.37 2030.34,465.696 2030.34,473.487L2030.34,501.721C2030.34,509.512 2036.66,515.838 2044.46,515.838L2133.99,515.838C2141.78,515.838 2148.11,509.512 2148.11,501.721L2148.11,473.487Z" style="fill:rgb(112,154,210);"/></g><g transform="matrix(0.890043,0,0,1,223.249,84.2557)"><path d="M2148.11,473.487C2148.11,465.696 2141.78,459.37 2133.99,459.37L2044.46,459.37C2036.66,459.37 2030.34,465.696 2030.34,473.487L2030.34,501.721C2030.34,509.512 2036.66,515.838 2044.46,515.838L2133.99,515.838C2141.78,515.838 2148.11,509.512 2148.11,501.721L2148.11,473.487Z" style="fill:rgb(175,198,230);"/></g><g transform="matrix(0.902553,0,0,1,642.053,0)"><path d="M2148.11,473.487C2148.11,465.696 2141.78,459.37 2133.99,459.37L2044.46,459.37C2036.66,459.37 2030.34,465.696 2030.34,473.487L2030.34,501.721C2030.34,509.512 2036.66,515.838 2044.46,515.838L2133.99,515.838C2141.78,515.838 2148.11,509.512 2148.11,501.721L2148.11,473.487Z" style="fill:rgb(112,154,210);"/></g><g transform="matrix(0.902553,0,0,1,642.053,84.2557)"><path d="M2148.11,473.487C2148.11,465.696 2141.78,459.37 2133.99,459.37L2044.46,459.37C2036.66,459.37 2030.34,465.696 2030.34,473.487L2030.34,501.721C2030.34,509.512 2036.66,515.838 2044.46,515.838L2133.99,515.838C2141.78,515.838 2148.11,509.512 2148.11,501.721L2148.11,473.487Z" style="fill:rgb(175,198,230);"/></g></g><g transform="matrix(1,0,0,1,30.9177,7.86267)"><g transform="matrix(18.8212,0,0,18.8212,-2891.18,-4513.92)"><g opacity="0.1"><g><path d="M347.6,344.74C352.4,347.5 352.41,352 347.67,354.75C342.93,357.51 335.22,357.51 330.41,354.74C325.63,351.98 325.6,347.51 330.35,344.75C335.1,341.99 342.83,341.98 347.6,344.74Z" style="fill-rule:nonzero;"/></g></g></g><g transform="matrix(18.8212,0,0,18.8212,-2891.18,-4513.92)"><g transform="matrix(0.0531316,0,0,0.0531316,151.948,239.425)"><path d="M3391.42,2105.42L3390.67,2105.42L3335.14,1820.85L3794.38,1813.7L3738.48,2105.42L3738.45,2105.42C3734.96,2128.15 3718.26,2150.31 3688.42,2167.72C3620.66,2207.06 3510.56,2207.06 3442.05,2167.53C3411.99,2150.15 3395.12,2128.06 3391.42,2105.42Z" style="fill:rgb(45,69,132);fill-rule:nonzero;"/></g><g><g><path d="M349.95,330.78C354.74,333.56 354.76,338.04 350,340.8C345.25,343.56 337.54,343.56 332.75,340.79C327.97,338.03 327.94,333.56 332.69,330.8C337.44,328.04 345.17,328.03 349.95,330.78Z" style="fill:rgb(142,187,229);fill-rule:nonzero;"/></g></g><g><g><path d="M347.29,332.13C350.8,334.16 350.8,337.42 347.33,339.45C343.87,341.46 338.23,341.46 334.72,339.44C331.23,337.42 331.2,334.16 334.67,332.13C338.15,330.13 343.8,330.12 347.29,332.13Z" style="fill:rgb(5,131,124);fill-rule:nonzero;"/></g></g></g><g transform="matrix(18.8212,0,0,18.8212,-2891.18,-4513.92)"><path d="M332.25,336.72C332.25,336.72 323.25,325.34 332.1,304.88C332.1,304.88 339.87,314.67 335.41,339.8C335.4,339.8 333.67,339.15 332.25,336.72Z" style="fill:rgb(68,174,158);fill-rule:nonzero;"/></g><g transform="matrix(18.8212,0,0,18.8212,-2891.18,-4513.92)"><path d="M332.19,305.02C332.37,312.9 332.81,326.59 333.89,338.78C334.74,339.54 335.4,339.8 335.4,339.8C339.56,316.37 333.09,306.28 332.19,305.02Z" style="fill:rgb(5,131,124);fill-rule:nonzero;"/></g><g transform="matrix(18.8212,0,0,18.8212,-2891.18,-4513.92)"><path d="M336.66,335.33C336.66,335.33 329.45,322.74 341.25,303.82C341.25,303.82 347.49,314.66 339.35,338.84C339.35,338.84 337.73,337.94 336.66,335.33Z" style="fill:rgb(68,174,158);fill-rule:nonzero;"/></g><g transform="matrix(18.8212,0,0,18.8212,-2891.18,-4513.92)"><path d="M341.25,303.82C340.25,311.63 338.03,325.21 337.3,337.42C338.02,338.32 338.65,338.67 338.65,338.67C347.49,317.55 341.95,305.19 341.25,303.82Z" style="fill:rgb(5,131,124);fill-rule:nonzero;"/></g><g transform="matrix(18.8212,0,0,18.8212,-2891.18,-4513.92)"><g><path d="M337.13,340.3C337.13,340.3 326.34,336.49 323.65,319.11C323.65,319.11 332.95,322.39 340.54,341.03C340.54,341.03 339.1,341.32 337.13,340.3Z" style="fill:rgb(68,174,158);fill-rule:nonzero;"/></g><g><path d="M323.77,319.16C327.2,324.36 333.24,333.3 339.09,340.98C339.98,341.14 340.53,341.03 340.53,341.03C333.47,323.65 324.91,319.62 323.77,319.16Z" style="fill:rgb(5,131,124);fill-rule:nonzero;"/></g></g><g transform="matrix(18.8212,0,0,18.8212,-2891.18,-4513.92)"><g><path d="M341.92,338.62C341.92,338.62 336.14,332.02 340.87,319.4C340.87,319.4 345.85,325.08 343.93,340.39C343.93,340.39 342.86,340.05 341.92,338.62Z" style="fill:rgb(68,174,158);fill-rule:nonzero;"/></g><g><path d="M340.94,319.48C341.28,324.23 341.96,332.48 342.98,339.8C343.52,340.23 343.93,340.38 343.93,340.38C345.72,326.13 341.52,320.21 340.94,319.48Z" style="fill:rgb(5,131,124);fill-rule:nonzero;"/></g></g><g transform="matrix(18.8212,0,0,18.8212,-2891.18,-4513.92)"><g><path d="M344.48,334.38C344.48,334.38 338.96,324.36 348.5,309.58C348.5,309.58 353.28,318.23 346.54,337.18C346.54,337.18 345.28,336.46 344.48,334.38Z" style="fill:rgb(68,174,158);fill-rule:nonzero;"/></g><g><path d="M348.56,309.71C347.67,315.87 346.22,326.57 345.5,336.19C346.06,336.89 346.54,337.18 346.54,337.18C352.82,319.51 349.09,310.82 348.56,309.71Z" style="fill:rgb(5,131,124);fill-rule:nonzero;"/></g></g><g transform="matrix(18.8212,0,0,18.8212,-2891.18,-4513.92)"><g><path d="M345.89,336.26C345.89,336.26 344.59,327.81 355.06,319.89C355.06,319.89 356.2,327.17 346.63,338.75C346.63,338.74 345.94,337.92 345.89,336.26Z" style="fill:rgb(68,174,158);fill-rule:nonzero;"/></g><g><path d="M355.07,319.99C352.86,324.07 349.14,331.22 346.15,337.8C346.37,338.43 346.63,338.75 346.63,338.75C355.55,327.95 355.16,320.9 355.07,319.99Z" style="fill:rgb(5,131,124);fill-rule:nonzero;"/></g></g></g></g></g></g><defs><linearGradient id="_Linear2" x1="0" y1="0" x2="1" y2="0" gradientUnits="userSpaceOnUse" gradientTransform="matrix(147.61,-713.609,713.609,147.61,2308.32,1159.62)"><stop offset="0" style="stop-color:white;stop-opacity:0"/><stop offset="1" style="stop-color:white;stop-opacity:1"/></linearGradient><linearGradient id="_Linear3" x1="0" y1="0" x2="1" y2="0" gradientUnits="userSpaceOnUse" gradientTransform="matrix(-236.834,-174.028,174.028,-236.834,2670.47,1305.06)"><stop offset="0" style="stop-color:white;stop-opacity:0"/><stop offset="1" style="stop-color:white;stop-opacity:1"/></linearGradient><linearGradient id="_Linear4" x1="0" y1="0" x2="1" y2="0" gradientUnits="userSpaceOnUse" gradientTransform="matrix(118.562,-187.738,187.738,118.562,2851.85,1240.3)"><stop offset="0" style="stop-color:white;stop-opacity:0"/><stop offset="1" style="stop-color:white;stop-opacity:1"/></linearGradient><linearGradient id="_Linear5" x1="0" y1="0" x2="1" y2="0" gradientUnits="userSpaceOnUse" gradientTransform="matrix(88.5265,-164.173,164.173,88.5265,2836.83,1366.89)"><stop offset="0" style="stop-color:white;stop-opacity:0"/><stop offset="1" style="stop-color:white;stop-opacity:1"/></linearGradient><linearGradient id="_Linear6" x1="0" y1="0" x2="1" y2="-0.00350663" gradientUnits="userSpaceOnUse" gradientTransform="matrix(70.1984,-129.637,130.184,69.9038,2821.75,1530.06)"><stop offset="0" style="stop-color:white;stop-opacity:0"/><stop offset="1" style="stop-color:white;stop-opacity:1"/></linearGradient><linearGradient id="_Linear7" x1="0" y1="0" x2="1" y2="0" gradientUnits="userSpaceOnUse" gradientTransform="matrix(164.777,-462.318,462.318,164.777,1843.42,1158.87)"><stop offset="0" style="stop-color:white;stop-opacity:0"/><stop offset="1" style="stop-color:white;stop-opacity:1"/></linearGradient><linearGradient id="_Linear8" x1="0" y1="0" x2="1" y2="0" gradientUnits="userSpaceOnUse" gradientTransform="matrix(502.022,-488.673,488.673,502.022,1654.81,1755.8)"><stop offset="0" style="stop-color:white;stop-opacity:0"/><stop offset="1" style="stop-color:white;stop-opacity:1"/></linearGradient><linearGradient id="_Linear9" x1="0" y1="0" x2="1" y2="0" gradientUnits="userSpaceOnUse" gradientTransform="matrix(69.2645,-211.826,211.826,69.2645,1787.68,1966.26)"><stop offset="0" style="stop-color:white;stop-opacity:0"/><stop offset="1" style="stop-color:white;stop-opacity:1"/></linearGradient></defs></svg>